<?xml version="1.0" standalone="no"?>
<svg xmlns:xlink="http://www.w3.org/1999/xlink" xmlns="http://www.w3.org/2000/svg" font-family="Arial Unicode MS" preserveAspectRatio="xMinYMin" width="320mm" height="450mm" style=""><text x="15mm" y="15mm" style="font-size: 41px; text-anchor: middle;">T</text><text x="31mm" y="15mm" style="font-size: 41px; text-anchor: middle;">э</text><text x="47mm" y="15mm" style="font-size: 41px; text-anchor: middle;">z</text><text x="63mm" y="15mm" style="font-size: 41px; text-anchor: middle;">z</text><text x="79mm" y="15mm" style="font-size: 41px; text-anchor: middle;">z</text><text x="95mm" y="15mm" style="font-size: 41px; text-anchor: middle;">z</text><text x="111mm" y="15mm" style="font-size: 41px; text-anchor: middle;">э</text><text x="127mm" y="15mm" style="font-size: 41px; text-anchor: middle;">э</text><text x="143mm" y="15mm" style="font-size: 41px; text-anchor: middle;">っ</text><text x="159mm" y="15mm" style="font-size: 41px; text-anchor: middle;">з</text><text x="175mm" y="15mm" style="font-size: 41px; text-anchor: middle;">ز</text><text x="191mm" y="15mm" style="font-size: 41px; text-anchor: middle;">ا</text><text x="207mm" y="15mm" style="font-size: 41px; text-anchor: middle;">к</text><text x="223mm" y="15mm" style="font-size: 41px; text-anchor: middle;">ন</text><text x="239mm" y="15mm" style="font-size: 41px; text-anchor: middle;">ン</text><text x="255mm" y="15mm" style="font-size: 41px; text-anchor: middle;">Y</text><text x="271mm" y="15mm" style="font-size: 41px; text-anchor: middle;">ン</text><text x="287mm" y="15mm" style="font-size: 41px; text-anchor: middle;">u</text><text x="303mm" y="15mm" style="font-size: 41px; text-anchor: middle;">ノ</text><text x="15mm" y="30mm" style="font-size: 41px; text-anchor: middle;">ه</text><text x="31mm" y="30mm" style="font-size: 41px; text-anchor: middle;">ا</text><text x="47mm" y="30mm" style="font-size: 41px; text-anchor: middle;">ا</text><text x="63mm" y="30mm" style="font-size: 41px; text-anchor: middle;">ر</text><text x="79mm" y="30mm" style="font-size: 41px; text-anchor: middle;">ز</text><text x="95mm" y="30mm" style="font-size: 41px; text-anchor: middle;">र</text><text x="111mm" y="30mm" style="font-size: 41px; text-anchor: middle;">j</text><text x="127mm" y="30mm" style="font-size: 41px; text-anchor: middle;">ة</text><text x="143mm" y="30mm" style="font-size: 41px; text-anchor: middle;">ن</text><text x="159mm" y="30mm" style="font-size: 41px; text-anchor: middle;">x</text><text x="175mm" y="30mm" style="font-size: 41px; text-anchor: middle;">э</text><text x="191mm" y="30mm" style="font-size: 41px; text-anchor: middle;">T</text><text x="207mm" y="30mm" style="font-size: 41px; text-anchor: middle;">T</text><text x="223mm" y="30mm" style="font-size: 41px; text-anchor: middle;">э</text><text x="239mm" y="30mm" style="font-size: 41px; text-anchor: middle;">L</text><text x="255mm" y="30mm" style="font-size: 41px; text-anchor: middle;">v</text><text x="271mm" y="30mm" style="font-size: 41px; text-anchor: middle;">г</text><text x="287mm" y="30mm" style="font-size: 41px; text-anchor: middle;">一</text><text x="303mm" y="30mm" style="font-size: 41px; text-anchor: middle;">ب</text><text x="15mm" y="45mm" style="font-size: 41px; text-anchor: middle;">ノ</text><text x="31mm" y="45mm" style="font-size: 41px; text-anchor: middle;">ь</text><text x="47mm" y="45mm" style="font-size: 41px; text-anchor: middle;">ь</text><text x="63mm" y="45mm" style="font-size: 41px; text-anchor: middle;">ノ</text><text x="79mm" y="45mm" style="font-size: 41px; text-anchor: middle;">к</text><text x="95mm" y="45mm" style="font-size: 41px; text-anchor: middle;">к</text><text x="111mm" y="45mm" style="font-size: 41px; text-anchor: middle;">к</text><text x="127mm" y="45mm" style="font-size: 41px; text-anchor: middle;">ノ</text><text x="143mm" y="45mm" style="font-size: 41px; text-anchor: middle;">ь</text><text x="159mm" y="45mm" style="font-size: 41px; text-anchor: middle;">ッ</text><text x="175mm" y="45mm" style="font-size: 41px; text-anchor: middle;">ь</text><text x="191mm" y="45mm" style="font-size: 41px; text-anchor: middle;">ノ</text><text x="207mm" y="45mm" style="font-size: 41px; text-anchor: middle;">ب</text><text x="223mm" y="45mm" style="font-size: 41px; text-anchor: middle;">т</text><text x="239mm" y="45mm" style="font-size: 41px; text-anchor: middle;">د</text><text x="255mm" y="45mm" style="font-size: 41px; text-anchor: middle;">і</text><text x="271mm" y="45mm" style="font-size: 41px; text-anchor: middle;">ا</text><text x="287mm" y="45mm" style="font-size: 41px; text-anchor: middle;">і</text><text x="303mm" y="45mm" style="font-size: 41px; text-anchor: middle;">ا</text><text x="15mm" y="60mm" style="font-size: 41px; text-anchor: middle;">t</text><text x="31mm" y="60mm" style="font-size: 41px; text-anchor: middle;">ب</text><text x="47mm" y="60mm" style="font-size: 41px; text-anchor: middle;">ب</text><text x="63mm" y="60mm" style="font-size: 41px; text-anchor: middle;">t</text><text x="79mm" y="60mm" style="font-size: 41px; text-anchor: middle;">ا</text><text x="95mm" y="60mm" style="font-size: 41px; text-anchor: middle;">г</text><text x="111mm" y="60mm" style="font-size: 41px; text-anchor: middle;">v</text><text x="127mm" y="60mm" style="font-size: 41px; text-anchor: middle;">x</text><text x="143mm" y="60mm" style="font-size: 41px; text-anchor: middle;">э</text><text x="159mm" y="60mm" style="font-size: 41px; text-anchor: middle;">T</text><text x="175mm" y="60mm" style="font-size: 41px; text-anchor: middle;">प</text><text x="191mm" y="60mm" style="font-size: 41px; text-anchor: middle;">T</text><text x="207mm" y="60mm" style="font-size: 41px; text-anchor: middle;">э</text><text x="223mm" y="60mm" style="font-size: 41px; text-anchor: middle;">z</text><text x="239mm" y="60mm" style="font-size: 41px; text-anchor: middle;">э</text><text x="255mm" y="60mm" style="font-size: 41px; text-anchor: middle;">э</text><text x="271mm" y="60mm" style="font-size: 41px; text-anchor: middle;">э</text><text x="287mm" y="60mm" style="font-size: 41px; text-anchor: middle;">э</text><text x="303mm" y="60mm" style="font-size: 41px; text-anchor: middle;">z</text><text x="15mm" y="75mm" style="font-size: 41px; text-anchor: middle;">L</text><text x="31mm" y="75mm" style="font-size: 41px; text-anchor: middle;">v</text><text x="47mm" y="75mm" style="font-size: 41px; text-anchor: middle;">ا</text><text x="63mm" y="75mm" style="font-size: 41px; text-anchor: middle;">т</text><text x="79mm" y="75mm" style="font-size: 41px; text-anchor: middle;">ь</text><text x="95mm" y="75mm" style="font-size: 41px; text-anchor: middle;">n</text><text x="111mm" y="75mm" style="font-size: 41px; text-anchor: middle;">Y</text><text x="127mm" y="75mm" style="font-size: 41px; text-anchor: middle;">Y</text><text x="143mm" y="75mm" style="font-size: 41px; text-anchor: middle;">द</text><text x="159mm" y="75mm" style="font-size: 41px; text-anchor: middle;">ন</text><text x="175mm" y="75mm" style="font-size: 41px; text-anchor: middle;">к</text><text x="191mm" y="75mm" style="font-size: 41px; text-anchor: middle;">t</text><text x="207mm" y="75mm" style="font-size: 41px; text-anchor: middle;">د</text><text x="223mm" y="75mm" style="font-size: 41px; text-anchor: middle;">ا</text><text x="239mm" y="75mm" style="font-size: 41px; text-anchor: middle;">ر</text><text x="255mm" y="75mm" style="font-size: 41px; text-anchor: middle;">ز</text><text x="271mm" y="75mm" style="font-size: 41px; text-anchor: middle;">र</text><text x="287mm" y="75mm" style="font-size: 41px; text-anchor: middle;">v</text><text x="303mm" y="75mm" style="font-size: 41px; text-anchor: middle;">з</text><text x="15mm" y="90mm" style="font-size: 41px; text-anchor: middle;">L</text><text x="31mm" y="90mm" style="font-size: 41px; text-anchor: middle;">z</text><text x="47mm" y="90mm" style="font-size: 41px; text-anchor: middle;">T</text><text x="63mm" y="90mm" style="font-size: 41px; text-anchor: middle;">प</text><text x="79mm" y="90mm" style="font-size: 41px; text-anchor: middle;">T</text><text x="95mm" y="90mm" style="font-size: 41px; text-anchor: middle;">z</text><text x="111mm" y="90mm" style="font-size: 41px; text-anchor: middle;">ن</text><text x="127mm" y="90mm" style="font-size: 41px; text-anchor: middle;">र</text><text x="143mm" y="90mm" style="font-size: 41px; text-anchor: middle;">ا</text><text x="159mm" y="90mm" style="font-size: 41px; text-anchor: middle;">т</text><text x="175mm" y="90mm" style="font-size: 41px; text-anchor: middle;">ب</text><text x="191mm" y="90mm" style="font-size: 41px; text-anchor: middle;">ノ</text><text x="207mm" y="90mm" style="font-size: 41px; text-anchor: middle;">ь</text><text x="223mm" y="90mm" style="font-size: 41px; text-anchor: middle;">ь</text><text x="239mm" y="90mm" style="font-size: 41px; text-anchor: middle;">ノ</text><text x="255mm" y="90mm" style="font-size: 41px; text-anchor: middle;">к</text><text x="271mm" y="90mm" style="font-size: 41px; text-anchor: middle;">к</text><text x="287mm" y="90mm" style="font-size: 41px; text-anchor: middle;">ノ</text><text x="303mm" y="90mm" style="font-size: 41px; text-anchor: middle;">ь</text><text x="15mm" y="105mm" style="font-size: 41px; text-anchor: middle;">ь</text><text x="31mm" y="105mm" style="font-size: 41px; text-anchor: middle;">ь</text><text x="47mm" y="105mm" style="font-size: 41px; text-anchor: middle;">ノ</text><text x="63mm" y="105mm" style="font-size: 41px; text-anchor: middle;">ت</text><text x="79mm" y="105mm" style="font-size: 41px; text-anchor: middle;">ه</text><text x="95mm" y="105mm" style="font-size: 41px; text-anchor: middle;">一</text><text x="111mm" y="105mm" style="font-size: 41px; text-anchor: middle;">د</text><text x="127mm" y="105mm" style="font-size: 41px; text-anchor: middle;">і</text><text x="143mm" y="105mm" style="font-size: 41px; text-anchor: middle;">і</text><text x="159mm" y="105mm" style="font-size: 41px; text-anchor: middle;">د</text><text x="175mm" y="105mm" style="font-size: 41px; text-anchor: middle;">一</text><text x="191mm" y="105mm" style="font-size: 41px; text-anchor: middle;">ه</text><text x="207mm" y="105mm" style="font-size: 41px; text-anchor: middle;">ب</text><text x="223mm" y="105mm" style="font-size: 41px; text-anchor: middle;">ه</text><text x="239mm" y="105mm" style="font-size: 41px; text-anchor: middle;">т</text><text x="255mm" y="105mm" style="font-size: 41px; text-anchor: middle;">د</text><text x="271mm" y="105mm" style="font-size: 41px; text-anchor: middle;">ر</text><text x="287mm" y="105mm" style="font-size: 41px; text-anchor: middle;">з</text><text x="303mm" y="105mm" style="font-size: 41px; text-anchor: middle;">z</text><text x="15mm" y="120mm" style="font-size: 41px; text-anchor: middle;">T</text><text x="31mm" y="120mm" style="font-size: 41px; text-anchor: middle;">प</text><text x="47mm" y="120mm" style="font-size: 41px; text-anchor: middle;">н</text><text x="63mm" y="120mm" style="font-size: 41px; text-anchor: middle;">प</text><text x="79mm" y="120mm" style="font-size: 41px; text-anchor: middle;">э</text><text x="95mm" y="120mm" style="font-size: 41px; text-anchor: middle;">э</text><text x="111mm" y="120mm" style="font-size: 41px; text-anchor: middle;">э</text><text x="127mm" y="120mm" style="font-size: 41px; text-anchor: middle;">T</text><text x="143mm" y="120mm" style="font-size: 41px; text-anchor: middle;">T</text><text x="159mm" y="120mm" style="font-size: 41px; text-anchor: middle;">T</text><text x="175mm" y="120mm" style="font-size: 41px; text-anchor: middle;">z</text><text x="191mm" y="120mm" style="font-size: 41px; text-anchor: middle;">ن</text><text x="207mm" y="120mm" style="font-size: 41px; text-anchor: middle;">र</text><text x="223mm" y="120mm" style="font-size: 41px; text-anchor: middle;">і</text><text x="239mm" y="120mm" style="font-size: 41px; text-anchor: middle;">ب</text><text x="255mm" y="120mm" style="font-size: 41px; text-anchor: middle;">م</text><text x="271mm" y="120mm" style="font-size: 41px; text-anchor: middle;">ン</text><text x="287mm" y="120mm" style="font-size: 41px; text-anchor: middle;">দ</text><text x="303mm" y="120mm" style="font-size: 41px; text-anchor: middle;">দ</text><text x="15mm" y="135mm" style="font-size: 41px; text-anchor: middle;">द</text><text x="31mm" y="135mm" style="font-size: 41px; text-anchor: middle;">م</text><text x="47mm" y="135mm" style="font-size: 41px; text-anchor: middle;">ت</text><text x="63mm" y="135mm" style="font-size: 41px; text-anchor: middle;">т</text><text x="79mm" y="135mm" style="font-size: 41px; text-anchor: middle;">і</text><text x="95mm" y="135mm" style="font-size: 41px; text-anchor: middle;">г</text><text x="111mm" y="135mm" style="font-size: 41px; text-anchor: middle;">ز</text><text x="127mm" y="135mm" style="font-size: 41px; text-anchor: middle;">र</text><text x="143mm" y="135mm" style="font-size: 41px; text-anchor: middle;">j</text><text x="159mm" y="135mm" style="font-size: 41px; text-anchor: middle;">ة</text><text x="175mm" y="135mm" style="font-size: 41px; text-anchor: middle;">ن</text><text x="191mm" y="135mm" style="font-size: 41px; text-anchor: middle;">x</text><text x="207mm" y="135mm" style="font-size: 41px; text-anchor: middle;">э</text><text x="223mm" y="135mm" style="font-size: 41px; text-anchor: middle;">प</text><text x="239mm" y="135mm" style="font-size: 41px; text-anchor: middle;">प</text><text x="255mm" y="135mm" style="font-size: 41px; text-anchor: middle;">T</text><text x="271mm" y="135mm" style="font-size: 41px; text-anchor: middle;">っ</text><text x="287mm" y="135mm" style="font-size: 41px; text-anchor: middle;">з</text><text x="303mm" y="135mm" style="font-size: 41px; text-anchor: middle;">ز</text><text x="15mm" y="150mm" style="font-size: 41px; text-anchor: middle;">د</text><text x="31mm" y="150mm" style="font-size: 41px; text-anchor: middle;">t</text><text x="47mm" y="150mm" style="font-size: 41px; text-anchor: middle;">к</text><text x="63mm" y="150mm" style="font-size: 41px; text-anchor: middle;">ь</text><text x="79mm" y="150mm" style="font-size: 41px; text-anchor: middle;">ッ</text><text x="95mm" y="150mm" style="font-size: 41px; text-anchor: middle;">ь</text><text x="111mm" y="150mm" style="font-size: 41px; text-anchor: middle;">ノ</text><text x="127mm" y="150mm" style="font-size: 41px; text-anchor: middle;">ノ</text><text x="143mm" y="150mm" style="font-size: 41px; text-anchor: middle;">к</text><text x="159mm" y="150mm" style="font-size: 41px; text-anchor: middle;">ノ</text><text x="175mm" y="150mm" style="font-size: 41px; text-anchor: middle;">ь</text><text x="191mm" y="150mm" style="font-size: 41px; text-anchor: middle;">ь</text><text x="207mm" y="150mm" style="font-size: 41px; text-anchor: middle;">ь</text><text x="223mm" y="150mm" style="font-size: 41px; text-anchor: middle;">к</text><text x="239mm" y="150mm" style="font-size: 41px; text-anchor: middle;">ب</text><text x="255mm" y="150mm" style="font-size: 41px; text-anchor: middle;">t</text><text x="271mm" y="150mm" style="font-size: 41px; text-anchor: middle;">ا</text><text x="287mm" y="150mm" style="font-size: 41px; text-anchor: middle;">і</text><text x="303mm" y="150mm" style="font-size: 41px; text-anchor: middle;">ا</text><text x="15mm" y="165mm" style="font-size: 41px; text-anchor: middle;">і</text><text x="31mm" y="165mm" style="font-size: 41px; text-anchor: middle;">د</text><text x="47mm" y="165mm" style="font-size: 41px; text-anchor: middle;">т</text><text x="63mm" y="165mm" style="font-size: 41px; text-anchor: middle;">ه</text><text x="79mm" y="165mm" style="font-size: 41px; text-anchor: middle;">ب</text><text x="95mm" y="165mm" style="font-size: 41px; text-anchor: middle;">ه</text><text x="111mm" y="165mm" style="font-size: 41px; text-anchor: middle;">т</text><text x="127mm" y="165mm" style="font-size: 41px; text-anchor: middle;">і</text><text x="143mm" y="165mm" style="font-size: 41px; text-anchor: middle;">र</text><text x="159mm" y="165mm" style="font-size: 41px; text-anchor: middle;">ن</text><text x="175mm" y="165mm" style="font-size: 41px; text-anchor: middle;">z</text><text x="191mm" y="165mm" style="font-size: 41px; text-anchor: middle;">T</text><text x="207mm" y="165mm" style="font-size: 41px; text-anchor: middle;">प</text><text x="223mm" y="165mm" style="font-size: 41px; text-anchor: middle;">प</text><text x="239mm" y="165mm" style="font-size: 41px; text-anchor: middle;">T</text><text x="255mm" y="165mm" style="font-size: 41px; text-anchor: middle;">э</text><text x="271mm" y="165mm" style="font-size: 41px; text-anchor: middle;">э</text><text x="287mm" y="165mm" style="font-size: 41px; text-anchor: middle;">T</text><text x="303mm" y="165mm" style="font-size: 41px; text-anchor: middle;">T</text><text x="15mm" y="180mm" style="font-size: 41px; text-anchor: middle;">T</text><text x="31mm" y="180mm" style="font-size: 41px; text-anchor: middle;">э</text><text x="47mm" y="180mm" style="font-size: 41px; text-anchor: middle;">っ</text><text x="63mm" y="180mm" style="font-size: 41px; text-anchor: middle;">з</text><text x="79mm" y="180mm" style="font-size: 41px; text-anchor: middle;">ز</text><text x="95mm" y="180mm" style="font-size: 41px; text-anchor: middle;">ا</text><text x="111mm" y="180mm" style="font-size: 41px; text-anchor: middle;">ت</text><text x="127mm" y="180mm" style="font-size: 41px; text-anchor: middle;">ন</text><text x="143mm" y="180mm" style="font-size: 41px; text-anchor: middle;">ン</text><text x="159mm" y="180mm" style="font-size: 41px; text-anchor: middle;">দ</text><text x="175mm" y="180mm" style="font-size: 41px; text-anchor: middle;">Y</text><text x="191mm" y="180mm" style="font-size: 41px; text-anchor: middle;">n</text><text x="207mm" y="180mm" style="font-size: 41px; text-anchor: middle;">ッ</text><text x="223mm" y="180mm" style="font-size: 41px; text-anchor: middle;">ب</text><text x="239mm" y="180mm" style="font-size: 41px; text-anchor: middle;">一</text><text x="255mm" y="180mm" style="font-size: 41px; text-anchor: middle;">і</text><text x="271mm" y="180mm" style="font-size: 41px; text-anchor: middle;">г</text><text x="287mm" y="180mm" style="font-size: 41px; text-anchor: middle;">ز</text><text x="303mm" y="180mm" style="font-size: 41px; text-anchor: middle;">र</text><text x="15mm" y="195mm" style="font-size: 41px; text-anchor: middle;">j</text><text x="31mm" y="195mm" style="font-size: 41px; text-anchor: middle;">ة</text><text x="47mm" y="195mm" style="font-size: 41px; text-anchor: middle;">L</text><text x="63mm" y="195mm" style="font-size: 41px; text-anchor: middle;">っ</text><text x="79mm" y="195mm" style="font-size: 41px; text-anchor: middle;">э</text><text x="95mm" y="195mm" style="font-size: 41px; text-anchor: middle;">T</text><text x="111mm" y="195mm" style="font-size: 41px; text-anchor: middle;">T</text><text x="127mm" y="195mm" style="font-size: 41px; text-anchor: middle;">z</text><text x="143mm" y="195mm" style="font-size: 41px; text-anchor: middle;">x</text><text x="159mm" y="195mm" style="font-size: 41px; text-anchor: middle;">v</text><text x="175mm" y="195mm" style="font-size: 41px; text-anchor: middle;">ر</text><text x="191mm" y="195mm" style="font-size: 41px; text-anchor: middle;">د</text><text x="207mm" y="195mm" style="font-size: 41px; text-anchor: middle;">ه</text><text x="223mm" y="195mm" style="font-size: 41px; text-anchor: middle;">к</text><text x="239mm" y="195mm" style="font-size: 41px; text-anchor: middle;">ь</text><text x="255mm" y="195mm" style="font-size: 41px; text-anchor: middle;">ь</text><text x="271mm" y="195mm" style="font-size: 41px; text-anchor: middle;">ь</text><text x="287mm" y="195mm" style="font-size: 41px; text-anchor: middle;">ノ</text><text x="303mm" y="195mm" style="font-size: 41px; text-anchor: middle;">ノ</text><text x="15mm" y="210mm" style="font-size: 41px; text-anchor: middle;">ノ</text><text x="31mm" y="210mm" style="font-size: 41px; text-anchor: middle;">ノ</text><text x="47mm" y="210mm" style="font-size: 41px; text-anchor: middle;">ノ</text><text x="63mm" y="210mm" style="font-size: 41px; text-anchor: middle;">ノ</text><text x="79mm" y="210mm" style="font-size: 41px; text-anchor: middle;">ノ</text><text x="95mm" y="210mm" style="font-size: 41px; text-anchor: middle;">к</text><text x="111mm" y="210mm" style="font-size: 41px; text-anchor: middle;">ب</text><text x="127mm" y="210mm" style="font-size: 41px; text-anchor: middle;">t</text><text x="143mm" y="210mm" style="font-size: 41px; text-anchor: middle;">ا</text><text x="159mm" y="210mm" style="font-size: 41px; text-anchor: middle;">і</text><text x="175mm" y="210mm" style="font-size: 41px; text-anchor: middle;">і</text><text x="191mm" y="210mm" style="font-size: 41px; text-anchor: middle;">і</text><text x="207mm" y="210mm" style="font-size: 41px; text-anchor: middle;">د</text><text x="223mm" y="210mm" style="font-size: 41px; text-anchor: middle;">一</text><text x="239mm" y="210mm" style="font-size: 41px; text-anchor: middle;">ه</text><text x="255mm" y="210mm" style="font-size: 41px; text-anchor: middle;">ت</text><text x="271mm" y="210mm" style="font-size: 41px; text-anchor: middle;">ب</text><text x="287mm" y="210mm" style="font-size: 41px; text-anchor: middle;">t</text><text x="303mm" y="210mm" style="font-size: 41px; text-anchor: middle;">د</text><text x="15mm" y="225mm" style="font-size: 41px; text-anchor: middle;">ز</text><text x="31mm" y="225mm" style="font-size: 41px; text-anchor: middle;">з</text><text x="47mm" y="225mm" style="font-size: 41px; text-anchor: middle;">z</text><text x="63mm" y="225mm" style="font-size: 41px; text-anchor: middle;">T</text><text x="79mm" y="225mm" style="font-size: 41px; text-anchor: middle;">T</text><text x="95mm" y="225mm" style="font-size: 41px; text-anchor: middle;">э</text><text x="111mm" y="225mm" style="font-size: 41px; text-anchor: middle;">z</text><text x="127mm" y="225mm" style="font-size: 41px; text-anchor: middle;">z</text><text x="143mm" y="225mm" style="font-size: 41px; text-anchor: middle;">z</text><text x="159mm" y="225mm" style="font-size: 41px; text-anchor: middle;">z</text><text x="175mm" y="225mm" style="font-size: 41px; text-anchor: middle;">э</text><text x="191mm" y="225mm" style="font-size: 41px; text-anchor: middle;">э</text><text x="207mm" y="225mm" style="font-size: 41px; text-anchor: middle;">っ</text><text x="223mm" y="225mm" style="font-size: 41px; text-anchor: middle;">з</text><text x="239mm" y="225mm" style="font-size: 41px; text-anchor: middle;">ز</text><text x="255mm" y="225mm" style="font-size: 41px; text-anchor: middle;">ا</text><text x="271mm" y="225mm" style="font-size: 41px; text-anchor: middle;">к</text><text x="287mm" y="225mm" style="font-size: 41px; text-anchor: middle;">ন</text><text x="303mm" y="225mm" style="font-size: 41px; text-anchor: middle;">ン</text><text x="15mm" y="240mm" style="font-size: 41px; text-anchor: middle;">Y</text><text x="31mm" y="240mm" style="font-size: 41px; text-anchor: middle;">ン</text><text x="47mm" y="240mm" style="font-size: 41px; text-anchor: middle;">u</text><text x="63mm" y="240mm" style="font-size: 41px; text-anchor: middle;">ノ</text><text x="79mm" y="240mm" style="font-size: 41px; text-anchor: middle;">ه</text><text x="95mm" y="240mm" style="font-size: 41px; text-anchor: middle;">ا</text><text x="111mm" y="240mm" style="font-size: 41px; text-anchor: middle;">ا</text><text x="127mm" y="240mm" style="font-size: 41px; text-anchor: middle;">ر</text><text x="143mm" y="240mm" style="font-size: 41px; text-anchor: middle;">ز</text><text x="159mm" y="240mm" style="font-size: 41px; text-anchor: middle;">र</text><text x="175mm" y="240mm" style="font-size: 41px; text-anchor: middle;">j</text><text x="191mm" y="240mm" style="font-size: 41px; text-anchor: middle;">ة</text><text x="207mm" y="240mm" style="font-size: 41px; text-anchor: middle;">ن</text><text x="223mm" y="240mm" style="font-size: 41px; text-anchor: middle;">x</text><text x="239mm" y="240mm" style="font-size: 41px; text-anchor: middle;">э</text><text x="255mm" y="240mm" style="font-size: 41px; text-anchor: middle;">T</text><text x="271mm" y="240mm" style="font-size: 41px; text-anchor: middle;">T</text><text x="287mm" y="240mm" style="font-size: 41px; text-anchor: middle;">э</text><text x="303mm" y="240mm" style="font-size: 41px; text-anchor: middle;">L</text><text x="15mm" y="255mm" style="font-size: 41px; text-anchor: middle;">v</text><text x="31mm" y="255mm" style="font-size: 41px; text-anchor: middle;">г</text><text x="47mm" y="255mm" style="font-size: 41px; text-anchor: middle;">一</text><text x="63mm" y="255mm" style="font-size: 41px; text-anchor: middle;">ب</text><text x="79mm" y="255mm" style="font-size: 41px; text-anchor: middle;">ノ</text><text x="95mm" y="255mm" style="font-size: 41px; text-anchor: middle;">ь</text><text x="111mm" y="255mm" style="font-size: 41px; text-anchor: middle;">ь</text><text x="127mm" y="255mm" style="font-size: 41px; text-anchor: middle;">ノ</text><text x="143mm" y="255mm" style="font-size: 41px; text-anchor: middle;">к</text><text x="159mm" y="255mm" style="font-size: 41px; text-anchor: middle;">к</text><text x="175mm" y="255mm" style="font-size: 41px; text-anchor: middle;">к</text><text x="191mm" y="255mm" style="font-size: 41px; text-anchor: middle;">ノ</text><text x="207mm" y="255mm" style="font-size: 41px; text-anchor: middle;">ь</text><text x="223mm" y="255mm" style="font-size: 41px; text-anchor: middle;">ッ</text><text x="239mm" y="255mm" style="font-size: 41px; text-anchor: middle;">ь</text><text x="255mm" y="255mm" style="font-size: 41px; text-anchor: middle;">ノ</text><text x="271mm" y="255mm" style="font-size: 41px; text-anchor: middle;">ب</text><text x="287mm" y="255mm" style="font-size: 41px; text-anchor: middle;">т</text><text x="303mm" y="255mm" style="font-size: 41px; text-anchor: middle;">د</text><text x="15mm" y="270mm" style="font-size: 41px; text-anchor: middle;">і</text><text x="31mm" y="270mm" style="font-size: 41px; text-anchor: middle;">ا</text><text x="47mm" y="270mm" style="font-size: 41px; text-anchor: middle;">і</text><text x="63mm" y="270mm" style="font-size: 41px; text-anchor: middle;">ا</text><text x="79mm" y="270mm" style="font-size: 41px; text-anchor: middle;">t</text><text x="95mm" y="270mm" style="font-size: 41px; text-anchor: middle;">ب</text><text x="111mm" y="270mm" style="font-size: 41px; text-anchor: middle;">ب</text><text x="127mm" y="270mm" style="font-size: 41px; text-anchor: middle;">t</text><text x="143mm" y="270mm" style="font-size: 41px; text-anchor: middle;">ا</text><text x="159mm" y="270mm" style="font-size: 41px; text-anchor: middle;">г</text><text x="175mm" y="270mm" style="font-size: 41px; text-anchor: middle;">v</text><text x="191mm" y="270mm" style="font-size: 41px; text-anchor: middle;">x</text><text x="207mm" y="270mm" style="font-size: 41px; text-anchor: middle;">э</text><text x="223mm" y="270mm" style="font-size: 41px; text-anchor: middle;">T</text><text x="239mm" y="270mm" style="font-size: 41px; text-anchor: middle;">प</text><text x="255mm" y="270mm" style="font-size: 41px; text-anchor: middle;">T</text><text x="271mm" y="270mm" style="font-size: 41px; text-anchor: middle;">э</text><text x="287mm" y="270mm" style="font-size: 41px; text-anchor: middle;">z</text><text x="303mm" y="270mm" style="font-size: 41px; text-anchor: middle;">э</text><text x="15mm" y="285mm" style="font-size: 41px; text-anchor: middle;">э</text><text x="31mm" y="285mm" style="font-size: 41px; text-anchor: middle;">э</text><text x="47mm" y="285mm" style="font-size: 41px; text-anchor: middle;">э</text><text x="63mm" y="285mm" style="font-size: 41px; text-anchor: middle;">z</text><text x="79mm" y="285mm" style="font-size: 41px; text-anchor: middle;">L</text><text x="95mm" y="285mm" style="font-size: 41px; text-anchor: middle;">v</text><text x="111mm" y="285mm" style="font-size: 41px; text-anchor: middle;">ا</text><text x="127mm" y="285mm" style="font-size: 41px; text-anchor: middle;">т</text><text x="143mm" y="285mm" style="font-size: 41px; text-anchor: middle;">ь</text><text x="159mm" y="285mm" style="font-size: 41px; text-anchor: middle;">n</text><text x="175mm" y="285mm" style="font-size: 41px; text-anchor: middle;">Y</text><text x="191mm" y="285mm" style="font-size: 41px; text-anchor: middle;">Y</text><text x="207mm" y="285mm" style="font-size: 41px; text-anchor: middle;">द</text><text x="223mm" y="285mm" style="font-size: 41px; text-anchor: middle;">ন</text><text x="239mm" y="285mm" style="font-size: 41px; text-anchor: middle;">к</text><text x="255mm" y="285mm" style="font-size: 41px; text-anchor: middle;">t</text><text x="271mm" y="285mm" style="font-size: 41px; text-anchor: middle;">د</text><text x="287mm" y="285mm" style="font-size: 41px; text-anchor: middle;">ا</text><text x="303mm" y="285mm" style="font-size: 41px; text-anchor: middle;">ر</text><text x="15mm" y="300mm" style="font-size: 41px; text-anchor: middle;">ز</text><text x="31mm" y="300mm" style="font-size: 41px; text-anchor: middle;">र</text><text x="47mm" y="300mm" style="font-size: 41px; text-anchor: middle;">v</text><text x="63mm" y="300mm" style="font-size: 41px; text-anchor: middle;">з</text><text x="79mm" y="300mm" style="font-size: 41px; text-anchor: middle;">L</text><text x="95mm" y="300mm" style="font-size: 41px; text-anchor: middle;">z</text><text x="111mm" y="300mm" style="font-size: 41px; text-anchor: middle;">T</text><text x="127mm" y="300mm" style="font-size: 41px; text-anchor: middle;">प</text><text x="143mm" y="300mm" style="font-size: 41px; text-anchor: middle;">T</text><text x="159mm" y="300mm" style="font-size: 41px; text-anchor: middle;">z</text><text x="175mm" y="300mm" style="font-size: 41px; text-anchor: middle;">ن</text><text x="191mm" y="300mm" style="font-size: 41px; text-anchor: middle;">र</text><text x="207mm" y="300mm" style="font-size: 41px; text-anchor: middle;">ا</text><text x="223mm" y="300mm" style="font-size: 41px; text-anchor: middle;">т</text><text x="239mm" y="300mm" style="font-size: 41px; text-anchor: middle;">ب</text><text x="255mm" y="300mm" style="font-size: 41px; text-anchor: middle;">ノ</text><text x="271mm" y="300mm" style="font-size: 41px; text-anchor: middle;">ь</text><text x="287mm" y="300mm" style="font-size: 41px; text-anchor: middle;">ь</text><text x="303mm" y="300mm" style="font-size: 41px; text-anchor: middle;">ノ</text><text x="15mm" y="315mm" style="font-size: 41px; text-anchor: middle;">к</text><text x="31mm" y="315mm" style="font-size: 41px; text-anchor: middle;">к</text><text x="47mm" y="315mm" style="font-size: 41px; text-anchor: middle;">ノ</text><text x="63mm" y="315mm" style="font-size: 41px; text-anchor: middle;">ь</text><text x="79mm" y="315mm" style="font-size: 41px; text-anchor: middle;">ь</text><text x="95mm" y="315mm" style="font-size: 41px; text-anchor: middle;">ь</text><text x="111mm" y="315mm" style="font-size: 41px; text-anchor: middle;">ノ</text><text x="127mm" y="315mm" style="font-size: 41px; text-anchor: middle;">ت</text><text x="143mm" y="315mm" style="font-size: 41px; text-anchor: middle;">ه</text><text x="159mm" y="315mm" style="font-size: 41px; text-anchor: middle;">一</text><text x="175mm" y="315mm" style="font-size: 41px; text-anchor: middle;">د</text><text x="191mm" y="315mm" style="font-size: 41px; text-anchor: middle;">і</text><text x="207mm" y="315mm" style="font-size: 41px; text-anchor: middle;">і</text><text x="223mm" y="315mm" style="font-size: 41px; text-anchor: middle;">د</text><text x="239mm" y="315mm" style="font-size: 41px; text-anchor: middle;">一</text><text x="255mm" y="315mm" style="font-size: 41px; text-anchor: middle;">ه</text><text x="271mm" y="315mm" style="font-size: 41px; text-anchor: middle;">ب</text><text x="287mm" y="315mm" style="font-size: 41px; text-anchor: middle;">ه</text><text x="303mm" y="315mm" style="font-size: 41px; text-anchor: middle;">т</text><text x="15mm" y="330mm" style="font-size: 41px; text-anchor: middle;">د</text><text x="31mm" y="330mm" style="font-size: 41px; text-anchor: middle;">ر</text><text x="47mm" y="330mm" style="font-size: 41px; text-anchor: middle;">з</text><text x="63mm" y="330mm" style="font-size: 41px; text-anchor: middle;">z</text><text x="79mm" y="330mm" style="font-size: 41px; text-anchor: middle;">T</text><text x="95mm" y="330mm" style="font-size: 41px; text-anchor: middle;">प</text><text x="111mm" y="330mm" style="font-size: 41px; text-anchor: middle;">н</text><text x="127mm" y="330mm" style="font-size: 41px; text-anchor: middle;">प</text><text x="143mm" y="330mm" style="font-size: 41px; text-anchor: middle;">э</text><text x="159mm" y="330mm" style="font-size: 41px; text-anchor: middle;">э</text><text x="175mm" y="330mm" style="font-size: 41px; text-anchor: middle;">э</text><text x="191mm" y="330mm" style="font-size: 41px; text-anchor: middle;">T</text><text x="207mm" y="330mm" style="font-size: 41px; text-anchor: middle;">T</text><text x="223mm" y="330mm" style="font-size: 41px; text-anchor: middle;">T</text><text x="239mm" y="330mm" style="font-size: 41px; text-anchor: middle;">z</text><text x="255mm" y="330mm" style="font-size: 41px; text-anchor: middle;">ن</text><text x="271mm" y="330mm" style="font-size: 41px; text-anchor: middle;">र</text><text x="287mm" y="330mm" style="font-size: 41px; text-anchor: middle;">і</text><text x="303mm" y="330mm" style="font-size: 41px; text-anchor: middle;">ب</text><text x="15mm" y="345mm" style="font-size: 41px; text-anchor: middle;">م</text><text x="31mm" y="345mm" style="font-size: 41px; text-anchor: middle;">ン</text><text x="47mm" y="345mm" style="font-size: 41px; text-anchor: middle;">দ</text><text x="63mm" y="345mm" style="font-size: 41px; text-anchor: middle;">দ</text><text x="79mm" y="345mm" style="font-size: 41px; text-anchor: middle;">द</text><text x="95mm" y="345mm" style="font-size: 41px; text-anchor: middle;">م</text><text x="111mm" y="345mm" style="font-size: 41px; text-anchor: middle;">ت</text><text x="127mm" y="345mm" style="font-size: 41px; text-anchor: middle;">т</text><text x="143mm" y="345mm" style="font-size: 41px; text-anchor: middle;">і</text><text x="159mm" y="345mm" style="font-size: 41px; text-anchor: middle;">г</text><text x="175mm" y="345mm" style="font-size: 41px; text-anchor: middle;">ز</text><text x="191mm" y="345mm" style="font-size: 41px; text-anchor: middle;">र</text><text x="207mm" y="345mm" style="font-size: 41px; text-anchor: middle;">j</text><text x="223mm" y="345mm" style="font-size: 41px; text-anchor: middle;">ة</text><text x="239mm" y="345mm" style="font-size: 41px; text-anchor: middle;">ن</text><text x="255mm" y="345mm" style="font-size: 41px; text-anchor: middle;">x</text><text x="271mm" y="345mm" style="font-size: 41px; text-anchor: middle;">э</text><text x="287mm" y="345mm" style="font-size: 41px; text-anchor: middle;">प</text><text x="303mm" y="345mm" style="font-size: 41px; text-anchor: middle;">प</text><text x="15mm" y="360mm" style="font-size: 41px; text-anchor: middle;">T</text><text x="31mm" y="360mm" style="font-size: 41px; text-anchor: middle;">っ</text><text x="47mm" y="360mm" style="font-size: 41px; text-anchor: middle;">з</text><text x="63mm" y="360mm" style="font-size: 41px; text-anchor: middle;">ز</text><text x="79mm" y="360mm" style="font-size: 41px; text-anchor: middle;">د</text><text x="95mm" y="360mm" style="font-size: 41px; text-anchor: middle;">t</text><text x="111mm" y="360mm" style="font-size: 41px; text-anchor: middle;">к</text><text x="127mm" y="360mm" style="font-size: 41px; text-anchor: middle;">ь</text><text x="143mm" y="360mm" style="font-size: 41px; text-anchor: middle;">ッ</text><text x="159mm" y="360mm" style="font-size: 41px; text-anchor: middle;">ь</text><text x="175mm" y="360mm" style="font-size: 41px; text-anchor: middle;">ノ</text><text x="191mm" y="360mm" style="font-size: 41px; text-anchor: middle;">ノ</text><text x="207mm" y="360mm" style="font-size: 41px; text-anchor: middle;">к</text><text x="223mm" y="360mm" style="font-size: 41px; text-anchor: middle;">ノ</text><text x="239mm" y="360mm" style="font-size: 41px; text-anchor: middle;">ь</text><text x="255mm" y="360mm" style="font-size: 41px; text-anchor: middle;">ь</text><text x="271mm" y="360mm" style="font-size: 41px; text-anchor: middle;">ь</text><text x="287mm" y="360mm" style="font-size: 41px; text-anchor: middle;">к</text><text x="303mm" y="360mm" style="font-size: 41px; text-anchor: middle;">ب</text><text x="15mm" y="375mm" style="font-size: 41px; text-anchor: middle;">t</text><text x="31mm" y="375mm" style="font-size: 41px; text-anchor: middle;">ا</text><text x="47mm" y="375mm" style="font-size: 41px; text-anchor: middle;">і</text><text x="63mm" y="375mm" style="font-size: 41px; text-anchor: middle;">ا</text><text x="79mm" y="375mm" style="font-size: 41px; text-anchor: middle;">і</text><text x="95mm" y="375mm" style="font-size: 41px; text-anchor: middle;">د</text><text x="111mm" y="375mm" style="font-size: 41px; text-anchor: middle;">т</text><text x="127mm" y="375mm" style="font-size: 41px; text-anchor: middle;">ه</text><text x="143mm" y="375mm" style="font-size: 41px; text-anchor: middle;">ب</text><text x="159mm" y="375mm" style="font-size: 41px; text-anchor: middle;">ه</text><text x="175mm" y="375mm" style="font-size: 41px; text-anchor: middle;">т</text><text x="191mm" y="375mm" style="font-size: 41px; text-anchor: middle;">і</text><text x="207mm" y="375mm" style="font-size: 41px; text-anchor: middle;">र</text><text x="223mm" y="375mm" style="font-size: 41px; text-anchor: middle;">ن</text><text x="239mm" y="375mm" style="font-size: 41px; text-anchor: middle;">z</text><text x="255mm" y="375mm" style="font-size: 41px; text-anchor: middle;">T</text><text x="271mm" y="375mm" style="font-size: 41px; text-anchor: middle;">प</text><text x="287mm" y="375mm" style="font-size: 41px; text-anchor: middle;">प</text><text x="303mm" y="375mm" style="font-size: 41px; text-anchor: middle;">T</text><text x="15mm" y="390mm" style="font-size: 41px; text-anchor: middle;">э</text><text x="31mm" y="390mm" style="font-size: 41px; text-anchor: middle;">э</text><text x="47mm" y="390mm" style="font-size: 41px; text-anchor: middle;">T</text><text x="63mm" y="390mm" style="font-size: 41px; text-anchor: middle;">T</text><text x="79mm" y="390mm" style="font-size: 41px; text-anchor: middle;">T</text><text x="95mm" y="390mm" style="font-size: 41px; text-anchor: middle;">э</text><text x="111mm" y="390mm" style="font-size: 41px; text-anchor: middle;">っ</text><text x="127mm" y="390mm" style="font-size: 41px; text-anchor: middle;">з</text><text x="143mm" y="390mm" style="font-size: 41px; text-anchor: middle;">ز</text><text x="159mm" y="390mm" style="font-size: 41px; text-anchor: middle;">ا</text><text x="175mm" y="390mm" style="font-size: 41px; text-anchor: middle;">ت</text><text x="191mm" y="390mm" style="font-size: 41px; text-anchor: middle;">ন</text><text x="207mm" y="390mm" style="font-size: 41px; text-anchor: middle;">ン</text><text x="223mm" y="390mm" style="font-size: 41px; text-anchor: middle;">দ</text><text x="239mm" y="390mm" style="font-size: 41px; text-anchor: middle;">Y</text><text x="255mm" y="390mm" style="font-size: 41px; text-anchor: middle;">n</text><text x="271mm" y="390mm" style="font-size: 41px; text-anchor: middle;">ッ</text><text x="287mm" y="390mm" style="font-size: 41px; text-anchor: middle;">ب</text><text x="303mm" y="390mm" style="font-size: 41px; text-anchor: middle;">一</text><text x="15mm" y="405mm" style="font-size: 41px; text-anchor: middle;">і</text><text x="31mm" y="405mm" style="font-size: 41px; text-anchor: middle;">г</text><text x="47mm" y="405mm" style="font-size: 41px; text-anchor: middle;">ز</text><text x="63mm" y="405mm" style="font-size: 41px; text-anchor: middle;">र</text><text x="79mm" y="405mm" style="font-size: 41px; text-anchor: middle;">j</text><text x="95mm" y="405mm" style="font-size: 41px; text-anchor: middle;">ة</text><text x="111mm" y="405mm" style="font-size: 41px; text-anchor: middle;">L</text><text x="127mm" y="405mm" style="font-size: 41px; text-anchor: middle;">っ</text><text x="143mm" y="405mm" style="font-size: 41px; text-anchor: middle;">э</text><text x="159mm" y="405mm" style="font-size: 41px; text-anchor: middle;">T</text><text x="175mm" y="405mm" style="font-size: 41px; text-anchor: middle;">T</text><text x="191mm" y="405mm" style="font-size: 41px; text-anchor: middle;">z</text><text x="207mm" y="405mm" style="font-size: 41px; text-anchor: middle;">x</text><text x="223mm" y="405mm" style="font-size: 41px; text-anchor: middle;">v</text><text x="239mm" y="405mm" style="font-size: 41px; text-anchor: middle;">ر</text><text x="255mm" y="405mm" style="font-size: 41px; text-anchor: middle;">د</text><text x="271mm" y="405mm" style="font-size: 41px; text-anchor: middle;">ه</text><text x="287mm" y="405mm" style="font-size: 41px; text-anchor: middle;">к</text><text x="303mm" y="405mm" style="font-size: 41px; text-anchor: middle;">ь</text><text x="15mm" y="420mm" style="font-size: 41px; text-anchor: middle;">ь</text><text x="31mm" y="420mm" style="font-size: 41px; text-anchor: middle;">ь</text><text x="47mm" y="420mm" style="font-size: 41px; text-anchor: middle;">ノ</text><text x="63mm" y="420mm" style="font-size: 41px; text-anchor: middle;">ノ</text><text x="79mm" y="420mm" style="font-size: 41px; text-anchor: middle;">ノ</text><text x="95mm" y="420mm" style="font-size: 41px; text-anchor: middle;">ノ</text><text x="111mm" y="420mm" style="font-size: 41px; text-anchor: middle;">ノ</text><text x="127mm" y="420mm" style="font-size: 41px; text-anchor: middle;">ノ</text><text x="143mm" y="420mm" style="font-size: 41px; text-anchor: middle;">ノ</text><text x="159mm" y="420mm" style="font-size: 41px; text-anchor: middle;">к</text><text x="175mm" y="420mm" style="font-size: 41px; text-anchor: middle;">ب</text><text x="191mm" y="420mm" style="font-size: 41px; text-anchor: middle;">t</text><text x="207mm" y="420mm" style="font-size: 41px; text-anchor: middle;">ا</text><text x="223mm" y="420mm" style="font-size: 41px; text-anchor: middle;">і</text><text x="239mm" y="420mm" style="font-size: 41px; text-anchor: middle;">і</text><text x="255mm" y="420mm" style="font-size: 41px; text-anchor: middle;">і</text><text x="271mm" y="420mm" style="font-size: 41px; text-anchor: middle;">د</text><text x="287mm" y="420mm" style="font-size: 41px; text-anchor: middle;">一</text><text x="303mm" y="420mm" style="font-size: 41px; text-anchor: middle;">ه</text><text x="15mm" y="435mm" style="font-size: 41px; text-anchor: middle;">ت</text><text x="31mm" y="435mm" style="font-size: 41px; text-anchor: middle;">ب</text><text x="47mm" y="435mm" style="font-size: 41px; text-anchor: middle;">t</text><text x="63mm" y="435mm" style="font-size: 41px; text-anchor: middle;">د</text><text x="79mm" y="435mm" style="font-size: 41px; text-anchor: middle;">ز</text><text x="95mm" y="435mm" style="font-size: 41px; text-anchor: middle;">з</text><text x="111mm" y="435mm" style="font-size: 41px; text-anchor: middle;">z</text><text x="127mm" y="435mm" style="font-size: 41px; text-anchor: middle;">T</text></svg>