<svg width="508" height="508" viewBox="0 0 508 508" fill="none" xmlns="http://www.w3.org/2000/svg">
<g filter="url(#filter0_d_876_341)">
<rect width="500" height="500" transform="translate(4)" fill="white"/>
<path d="M332.919 235.244C321.913 236.564 292.747 236.893 279.539 236.893L228.36 236.344H188.738C173.329 236.344 147.832 231.58 137.009 229.198C136.642 230.114 135.358 232.826 133.157 236.344C130.955 239.862 123.435 258.331 119.949 267.126L127.654 274.271C136.275 272.256 156.6 267.565 168.927 264.927C181.254 262.288 213.685 261.995 228.36 262.179H279.539C291.83 262.545 319.712 263.498 332.919 264.377C346.127 265.257 364.104 269.141 371.441 270.973L387.95 232.496L381.897 225.35L367.039 230.297C360.251 231.397 343.926 233.925 332.919 235.244Z" fill="black"/>
</g>
<defs>
<filter id="filter0_d_876_341" x="0" y="0" width="508" height="508" filterUnits="userSpaceOnUse" color-interpolation-filters="sRGB">
<feFlood flood-opacity="0" result="BackgroundImageFix"/>
<feColorMatrix in="SourceAlpha" type="matrix" values="0 0 0 0 0 0 0 0 0 0 0 0 0 0 0 0 0 0 127 0" result="hardAlpha"/>
<feOffset dy="4"/>
<feGaussianBlur stdDeviation="2"/>
<feComposite in2="hardAlpha" operator="out"/>
<feColorMatrix type="matrix" values="0 0 0 0 0 0 0 0 0 0 0 0 0 0 0 0 0 0 0.25 0"/>
<feBlend mode="normal" in2="BackgroundImageFix" result="effect1_dropShadow_876_341"/>
<feBlend mode="normal" in="SourceGraphic" in2="effect1_dropShadow_876_341" result="shape"/>
</filter>
</defs>
</svg>
