<svg width="508" height="508" viewBox="0 0 508 508" fill="none" xmlns="http://www.w3.org/2000/svg">
<g filter="url(#filter0_d_876_304)">
<rect width="500" height="500" transform="translate(4)" fill="white"/>
<path d="M164 414V405.765C169.115 405.765 180.99 404.777 187.567 400.825C194.144 396.872 195.789 379.415 195.789 371.18C195.606 325.432 195.35 230.094 195.789 214.723C196.337 195.509 196.337 164.217 196.885 158.179C197.433 152.14 197.981 148.297 200.721 137.867C202.914 129.522 207.846 122.313 210.039 119.751C212.414 116.64 220.671 108.222 234.702 99.4387C248.733 90.6552 265.029 88.0933 271.423 87.9103C279.827 86.6294 301.239 85.7144 319.654 92.3021C342.673 100.537 344.318 112.065 344.866 120.3C345.414 128.534 344.866 134.024 331.712 143.357C318.558 152.689 301.568 146.65 294.991 142.259C288.414 137.867 285.673 129.083 286.77 126.338C287.866 123.594 289.51 110.967 288.414 107.124C287.537 104.05 285.125 102.55 284.029 102.184C283.846 101.269 281.289 99.7681 272.519 101.086C263.75 102.403 261.558 115.908 261.558 122.496V338.791C261.193 351.234 260.9 378.317 262.654 387.1C264.846 398.08 268.135 400.276 273.068 403.021C277.014 405.216 288.596 405.765 293.895 405.765V414H164Z" fill="black"/>
</g>
<defs>
<filter id="filter0_d_876_304" x="0" y="0" width="508" height="508" filterUnits="userSpaceOnUse" color-interpolation-filters="sRGB">
<feFlood flood-opacity="0" result="BackgroundImageFix"/>
<feColorMatrix in="SourceAlpha" type="matrix" values="0 0 0 0 0 0 0 0 0 0 0 0 0 0 0 0 0 0 127 0" result="hardAlpha"/>
<feOffset dy="4"/>
<feGaussianBlur stdDeviation="2"/>
<feComposite in2="hardAlpha" operator="out"/>
<feColorMatrix type="matrix" values="0 0 0 0 0 0 0 0 0 0 0 0 0 0 0 0 0 0 0.25 0"/>
<feBlend mode="normal" in2="BackgroundImageFix" result="effect1_dropShadow_876_304"/>
<feBlend mode="normal" in="SourceGraphic" in2="effect1_dropShadow_876_304" result="shape"/>
</filter>
</defs>
</svg>
