<svg width="508" height="508" viewBox="0 0 508 508" fill="none" xmlns="http://www.w3.org/2000/svg">
<g>
<path d="M84.506 96.9061V108.177C90.746 108.959 104.44 110.994 109.298 112.873C114.155 114.751 116.044 123.361 116.381 127.431C116.718 216.188 117.19 394.265 116.381 396.519C115.369 399.337 109.804 401.215 107.274 402.155C105.25 402.906 90.9147 406.851 84 408.729V419.53H192.274V408.729C190.081 408.103 183.369 406.287 174.06 404.033C164.75 401.779 160.399 397.459 159.387 395.58V276.298C159.218 272.541 159.286 263.713 160.905 258.453C162.524 253.193 170.349 246.869 174.06 244.365C177.601 242.173 188.833 239.481 205.429 246.243C222.024 253.006 238.99 275.359 245.399 285.691H262.601C268.504 277.551 282.536 259.486 291.44 252.348C302.571 243.425 313.702 240.138 329.893 242.956C342.845 245.21 347.77 260.175 348.613 267.376V395.58C348.107 396.206 345.982 398.022 341.53 400.276C337.077 402.53 322.81 406.538 316.232 408.26V420H424V408.26C419.615 407.32 409.024 404.785 401.738 402.155C394.452 399.525 391.282 396.676 390.607 395.58V254.227C390.776 249.843 389.089 238.26 380.994 226.989C372.899 215.718 351.986 210.709 342.542 209.613C340.518 208.674 330.5 209.238 306.619 219.006C282.738 228.773 261.589 252.505 254 263.149C250.627 259.705 242.667 251.503 237.81 246.243L237.656 246.077C231.694 239.62 229.016 236.72 206.44 221.354C188.226 208.956 167.819 208.361 159.893 209.613V87.5138L149.774 80C145.895 81.4088 135.506 85.1657 124.982 88.9227C114.458 92.6796 93.6131 95.8103 84.506 96.9061Z" fill="black"/>
</g>
</svg>
