<svg width="508" height="508" viewBox="0 0 508 508" fill="none" xmlns="http://www.w3.org/2000/svg">
<g filter="url(#filter0_d_876_300)">
<rect width="500" height="500" transform="translate(4)" fill="white"/>
<path d="M168.624 99H57V112.375C59.0576 112.547 65.2304 113.404 73.4607 115.462C81.6911 117.52 88.5497 123.178 90.9503 125.75V219.891C90.9503 242.012 94.551 263.104 116.156 293.969C133.44 318.662 175.826 328.265 194.859 329.98C223.665 331.008 287.553 332.14 312.656 328.436C337.758 324.732 361.181 307.688 369.754 299.628C369.925 324.835 369.548 375.97 366.668 378.851C363.787 381.731 343.863 387.253 334.26 389.654V402H450V389.654C448.457 389.482 443.107 388.522 434.054 386.053C425 383.583 417.936 377.822 415.535 375.25V125.75C416.221 124.893 418.93 122.355 424.28 119.063C429.63 115.77 443.656 113.233 450 112.375V99H336.318V112.375C337.518 112.375 342.182 112.993 351.236 115.462C360.289 117.931 367.696 123.35 370.268 125.75C369.754 155.244 368.725 216.085 368.725 223.492C368.725 232.752 361.009 256.416 354.322 268.762C347.635 281.109 333.746 290.368 325.516 295.513C318.931 299.628 297.738 299.971 287.965 299.628H275.105V125.75C276.476 124.379 280.043 121.121 283.335 119.063C286.627 117.005 302.196 113.747 309.569 112.375V99H195.887V112.375C200.174 113.061 210.805 115.359 219.035 119.063C227.266 122.767 229.323 126.093 229.323 127.294V299.628C220.75 300.657 199.591 300.966 183.542 293.969C163.48 285.224 155.25 274.935 147.02 257.445C140.435 243.452 137.418 217.662 136.732 206.516V127.294C136.732 119.886 157.993 114.261 168.624 112.375V99Z" fill="black"/>
</g>
<defs>
<filter id="filter0_d_876_300" x="0" y="0" width="508" height="508" filterUnits="userSpaceOnUse" color-interpolation-filters="sRGB">
<feFlood flood-opacity="0" result="BackgroundImageFix"/>
<feColorMatrix in="SourceAlpha" type="matrix" values="0 0 0 0 0 0 0 0 0 0 0 0 0 0 0 0 0 0 127 0" result="hardAlpha"/>
<feOffset dy="4"/>
<feGaussianBlur stdDeviation="2"/>
<feComposite in2="hardAlpha" operator="out"/>
<feColorMatrix type="matrix" values="0 0 0 0 0 0 0 0 0 0 0 0 0 0 0 0 0 0 0.25 0"/>
<feBlend mode="normal" in2="BackgroundImageFix" result="effect1_dropShadow_876_300"/>
<feBlend mode="normal" in="SourceGraphic" in2="effect1_dropShadow_876_300" result="shape"/>
</filter>
</defs>
</svg>
