<svg width="508" height="508" viewBox="0 0 508 508" fill="none" xmlns="http://www.w3.org/2000/svg">
<g>
<path d="M84.5537 88.3582V96.1472H96.736C102.827 96.1472 110.579 98.3726 115.563 100.598C120.547 102.823 126.638 109.5 127.745 113.951C128.631 117.511 129.222 125.078 129.407 128.416C129.591 200.371 129.85 348.845 129.407 367.093C128.858 389.68 125.595 392.084 117.467 398.07L117.224 398.249C110.579 403.145 92.3061 403.256 84 402.7V411.602H252.89V402.7C248.645 402.885 238.714 403.034 232.956 402.144C225.757 401.031 225.203 400.475 216.343 395.467C209.256 391.462 207.114 380.446 206.93 375.438V183.495L222.435 154.008C230.371 140.099 251.893 110.612 274.486 103.936C302.727 95.5908 314.909 110.056 327.091 122.296C336.837 132.088 340.381 167.175 340.935 183.495V289.203C341.304 316.094 341.82 371.544 340.935 378.22C339.827 386.566 338.166 401.587 324.876 400.475C311.586 399.362 316.016 373.213 312.694 359.86C309.371 346.508 302.727 343.17 290.544 340.388C278.362 337.606 265.626 340.944 257.32 356.522C249.014 372.1 261.196 398.249 280.577 411.602C299.958 424.954 335.397 418.834 357.547 404.369C379.696 389.904 401.846 360.417 415.689 316.465C429.533 272.512 422.888 224.109 418.458 198.517C414.028 172.924 389.11 130.085 375.266 116.176C361.423 102.267 344.257 81.1255 293.313 80.0128C252.558 79.1226 218.743 124.892 206.93 147.888V88.3582H84.5537Z" fill="black"/>
</g>
</svg>
