<svg width="508" height="508" viewBox="0 0 508 508" fill="none" xmlns="http://www.w3.org/2000/svg">
<g>
<path d="M159.527 179.676L171.701 177.032C172.584 170.861 174.771 157.462 176.465 153.23C178.159 148.999 183.875 140.183 186.522 136.304C189.874 131.015 200.284 119.485 215.104 115.676C233.63 110.916 255.331 110.916 278.62 123.61C297.252 133.766 298.734 162.398 297.146 175.445C294.323 185.847 283.702 209.402 263.8 220.404C243.898 231.406 210.693 224.988 196.579 220.404L186.522 251.611L191.815 259.545C194.285 258.134 203.354 254.573 219.868 251.611C240.511 247.908 261.683 253.726 273.327 259.545C284.972 265.363 302.439 278.057 308.79 297.627C313.872 313.284 309.849 334.828 307.203 343.644C303.145 353.87 289.312 375.38 266.446 379.611C237.864 384.9 216.163 379.082 196.579 367.446C180.911 358.137 169.937 335.357 166.408 325.132L154.234 323.016C152.823 328.658 150 342.057 150 350.52C150 358.983 151.411 378.377 152.117 387.016C162.527 395.831 192.768 413.568 230.454 413.991C268.14 414.414 298.381 399.358 308.79 391.776C320.259 384.019 345.101 362.156 352.723 336.768C362.25 305.032 358.016 288.636 346.9 266.421C338.008 248.649 311.79 233.98 299.792 228.867C306.144 224.106 319.694 213.316 323.082 208.239C327.316 201.891 335.785 198.189 341.078 168.04C346.371 137.891 335.785 126.784 325.728 113.032C315.671 99.2795 290.794 87.6431 252.155 86.0564C221.244 84.7869 173.289 105.274 153.176 115.676C153.705 117.616 154.446 124.456 153.176 136.304C151.905 148.152 156.881 170.156 159.527 179.676Z" fill="black"/>
</g>
</svg>
