<svg width="508" height="508" viewBox="0 0 508 508" fill="none" xmlns="http://www.w3.org/2000/svg">
<g filter="url(#filter0_d_876_310)">
<rect width="500" height="500" transform="translate(4)" fill="white"/>
<path d="M85 422V408.047C87.7155 407.272 95.474 405.141 104.784 402.815C114.094 400.49 121.465 394.482 123.986 391.77V109.812C123.017 108.843 119.215 105.859 111.767 101.673C104.319 97.4871 90.8189 94.8904 85 94.1153V79.5814H214.179V94.1153C213.597 94.1153 209.291 94.9292 196.723 98.1847C184.154 101.44 177.52 107.293 175.775 109.812V229.571C184.115 230.346 203.123 232.478 212.433 234.803C224.071 237.71 234.545 245.849 242.692 253.407C249.209 259.453 252.778 270.654 253.748 275.498C254.135 272.979 255.959 266.08 260.148 258.639C265.385 249.337 275.859 243.524 288.079 237.129C297.855 232.013 322.022 229.571 332.884 228.99V109.812C332.69 109.037 330.324 106.44 322.41 102.254C314.497 98.0685 300.493 95.0842 294.48 94.1153V79H423.659V93.9731C424.176 93.9042 424.047 93.9861 423.659 94.1153V93.9731C422.624 94.111 419.004 94.8516 409.694 97.022C395.728 100.278 387.582 106.905 385.254 109.812V392.932C387.194 394.482 391.888 398.164 395.146 400.49C398.405 402.815 415.512 406.11 423.659 407.466V422H294.48V407.466C299.329 406.497 310.889 403.978 318.337 401.653C325.785 399.327 331.139 394.483 332.884 392.351V256.314C330.557 256.507 325.087 257.011 321.828 257.476C317.755 258.058 314.846 256.895 296.225 266.197C277.605 275.498 271.786 298.171 270.04 303.985C268.644 308.636 266.355 312.511 265.385 313.868C258.791 314.449 244.786 315.263 241.528 313.868C237.455 312.124 233.381 297.008 232.218 291.195C231.054 285.381 222.326 274.336 210.688 266.197C201.378 259.685 183.533 257.282 175.775 256.895V392.932C178.296 395.258 185.55 400.49 194.395 402.815C203.24 405.141 211.27 407.272 214.179 408.047V422H85Z" fill="black"/>
</g>
<defs>
<filter id="filter0_d_876_310" x="0" y="0" width="508" height="508" filterUnits="userSpaceOnUse" color-interpolation-filters="sRGB">
<feFlood flood-opacity="0" result="BackgroundImageFix"/>
<feColorMatrix in="SourceAlpha" type="matrix" values="0 0 0 0 0 0 0 0 0 0 0 0 0 0 0 0 0 0 127 0" result="hardAlpha"/>
<feOffset dy="4"/>
<feGaussianBlur stdDeviation="2"/>
<feComposite in2="hardAlpha" operator="out"/>
<feColorMatrix type="matrix" values="0 0 0 0 0 0 0 0 0 0 0 0 0 0 0 0 0 0 0.25 0"/>
<feBlend mode="normal" in2="BackgroundImageFix" result="effect1_dropShadow_876_310"/>
<feBlend mode="normal" in="SourceGraphic" in2="effect1_dropShadow_876_310" result="shape"/>
</filter>
</defs>
</svg>
