<svg width="508" height="508" viewBox="0 0 508 508" fill="none" xmlns="http://www.w3.org/2000/svg">
<g>
<path fill-rule="evenodd" clip-rule="evenodd" d="M269.083 100.282V84C288.667 85.8715 332.534 92.7585 351.335 105.335C374.835 121.055 392.74 140.144 391.621 173.831C390.502 207.517 370.359 224.922 355.811 233.343C344.173 240.081 321.493 246.631 311.608 249.064C332.684 251.871 379.2 265.57 396.657 297.909C406.953 319.019 402.439 346.006 398.895 356.86C395.538 368.651 379.759 394.814 343.501 405.144C307.243 415.475 261.249 416.56 242.785 415.812C221.149 415.437 172.731 411.994 152.14 401.214C126.401 387.74 107.937 369.212 105.698 342.263C103.46 315.314 106.258 301.278 119.127 286.68C131.997 272.083 143.747 265.907 154.378 260.854C162.883 256.812 185.526 251.309 195.784 249.064C173.029 244.759 125.842 227.392 119.127 192.358C110.789 148.854 130.614 135.824 146.783 125.196C146.89 125.126 146.997 125.055 147.104 124.985C163.331 114.318 192.426 107.019 201.379 105.896C208.541 104.998 228.983 101.779 238.308 100.282V116.002C230.848 118.809 214.472 127.006 208.653 137.337C201.379 150.25 194.665 169.9 203.058 198.534C211.451 227.167 238.308 247.379 272.44 236.151C305.954 225.125 307.64 185.411 308.219 171.752C308.23 171.5 308.24 171.257 308.25 171.023C308.81 158.11 305.453 127.231 291.464 113.756C280.274 102.977 271.881 100.282 269.083 100.282ZM256.214 255.801C267.404 256.924 283.071 258.833 300.977 279.943C318.882 301.053 316.457 337.023 313.286 352.369C309.743 364.908 297.955 391.108 276.917 395.6C250.618 401.214 220.963 396.723 206.974 378.195C197.462 365.596 187.95 347.316 193.546 309.138C198.022 278.595 228.237 252.994 256.214 255.801Z" fill="black"/>
</g>
</svg>
