<svg width="508" height="508" viewBox="0 0 508 508" fill="none" xmlns="http://www.w3.org/2000/svg">
<g filter="url(#filter0_d_876_308)">
<rect width="500" height="500" transform="translate(4)" fill="white"/>
<path d="M33 172.031L45.6571 177.528C49.6928 170.016 59.525 152.353 66.5689 141.799C75.3739 128.607 96.2857 114.865 119.949 112.666C143.612 110.467 171.678 125.309 179.383 128.607C187.087 131.905 201.945 148.945 212.952 169.283C221.757 185.553 226.893 220.769 228.36 236.344H188.738C173.329 236.344 147.831 231.58 137.009 229.198C136.642 230.114 135.358 232.826 133.157 236.344C130.955 239.862 123.434 258.331 119.949 267.126L127.653 274.271C136.275 272.256 156.6 267.565 168.927 264.927C181.254 262.288 213.685 261.995 228.36 262.179C227.26 277.02 224.618 308.681 222.857 316.597C220.656 326.491 211.851 355.624 188.738 373.214C165.625 390.803 140.861 391.903 105.641 384.757C77.4651 379.04 60.5155 348.295 55.5627 333.637L42.3553 330.888C41.6215 332.171 39.9339 336.605 39.0534 344.081C38.1729 351.556 36.1184 383.108 35.2012 397.949C52.4443 406.927 99.8077 423.564 151.317 418.287C202.826 413.01 239.55 371.748 251.473 351.776C256.426 358.555 270.734 376.292 288.344 393.002C310.357 413.89 339.523 418.287 380.796 419.936C413.815 421.255 452.153 401.797 467.195 391.903C466.828 388.788 466.865 380.469 469.947 372.114C473.028 363.759 475.266 338.217 476 326.491L463.893 322.093C462.609 324.842 459.711 330.888 458.39 333.087C457.069 335.286 449.035 347.928 445.183 353.975C438.395 363.686 418.548 383.547 393.453 385.306C362.086 387.505 347.778 381.459 332.919 372.114C318.061 362.77 306.504 349.577 294.948 328.14C285.703 310.99 280.823 277.02 279.539 262.179C291.829 262.545 319.712 263.498 332.919 264.377C346.127 265.257 364.104 269.141 371.441 270.973L387.95 232.496L381.897 225.35L367.039 230.297C360.251 231.397 343.925 233.925 332.919 235.244C321.913 236.564 292.747 236.893 279.539 236.893C279.723 232.862 280.31 222.602 281.19 213.807C282.291 202.813 286.143 178.078 292.747 162.687C298.03 150.374 306.688 139.234 310.357 135.203C318.795 124.209 346.127 103.981 387.95 111.017C429.774 118.053 448.668 150.96 452.887 166.535L466.094 168.733C466.461 167.084 467.635 161.917 469.396 154.442C471.157 146.966 472.331 116.514 472.698 102.222C466.278 98.9241 449.255 91.2286 432.525 86.8312C411.614 81.3344 382.997 76.937 339.523 84.0828C304.743 89.7994 270 129.34 256.976 148.395C255.325 146.38 251.693 141.469 250.373 137.951C248.722 133.554 229.461 114.315 212.952 102.222C196.442 90.1292 180.483 83.5331 134.257 80.235C97.2763 77.5966 56.4799 97.8247 40.7043 108.269L33 172.031Z" fill="black"/>
</g>
<defs>
<filter id="filter0_d_876_308" x="0" y="0" width="508" height="508" filterUnits="userSpaceOnUse" color-interpolation-filters="sRGB">
<feFlood flood-opacity="0" result="BackgroundImageFix"/>
<feColorMatrix in="SourceAlpha" type="matrix" values="0 0 0 0 0 0 0 0 0 0 0 0 0 0 0 0 0 0 127 0" result="hardAlpha"/>
<feOffset dy="4"/>
<feGaussianBlur stdDeviation="2"/>
<feComposite in2="hardAlpha" operator="out"/>
<feColorMatrix type="matrix" values="0 0 0 0 0 0 0 0 0 0 0 0 0 0 0 0 0 0 0.25 0"/>
<feBlend mode="normal" in2="BackgroundImageFix" result="effect1_dropShadow_876_308"/>
<feBlend mode="normal" in="SourceGraphic" in2="effect1_dropShadow_876_308" result="shape"/>
</filter>
</defs>
</svg>
