<svg width="40" height="49" viewBox="0 0 40 49" fill="none" xmlns="http://www.w3.org/2000/svg">

<path d="M7.54466 12.0231L15.5477 16.2959M15.5477 16.2959L22.5286 20.0231C24.7676 19.0231 29.7622 16.8231 31.829 16.0231C33.8957 15.2231 35.4458 15.0231 35.9625 15.0231C34.5846 12.5231 31.0023 7.62307 27.6955 8.02307C23.562 8.52307 17.8784 10.0231 16.845 12.5231C16.5253 13.2966 16.0571 14.6925 15.5477 16.2959ZM15.5477 16.2959C14.8903 18.3653 14.1642 20.7803 13.5996 22.6496M13.5996 22.6496C13.1878 24.0131 12.862 25.0862 12.7115 25.5231C12.1949 27.0231 7.54466 33.5231 5.47791 31.0231C3.82451 29.0231 6.85575 26.1897 8.57804 25.0231C9.73823 24.3322 11.6661 23.3369 13.5996 22.6496ZM13.5996 22.6496C15.3974 22.0105 17.2001 21.6376 18.395 22.0231C19.3589 22.334 20.8742 23.0074 22.5286 23.8026M22.5286 32.4301C25.0284 30.453 27.8292 28.6454 29.7621 27.5231C28.0774 26.606 25.131 25.0536 22.5286 23.8026M22.5286 32.4301C19.4601 34.8569 16.845 37.5392 16.845 39.5231C16.845 43.1231 17.8784 43.3564 18.395 43.0231C19.0839 43.1897 20.6684 43.0231 21.4951 41.0231C22.3219 39.0231 22.5286 35.8564 22.5286 34.5231V32.4301ZM22.5286 32.4301V23.8026M22.5 20C21 21 15.8333 22 13.5 22.5" stroke="white" stroke-width="2"/>
</svg>
