<svg width="40" height="49" viewBox="0 0 40 49" fill="none" xmlns="http://www.w3.org/2000/svg">

<path d="M36.0855 32.9681C35.9374 34.1094 33.5975 36.3066 25.4229 35.9642C17.2482 35.6218 13.7236 35.2508 12.9831 35.1082C14.1679 34.2521 16.6262 31.7696 16.9816 28.6879C17.337 25.6062 17.1297 23.9797 16.9816 23.5517C19.0549 26.9758 24.3566 33.2249 28.9771 30.828C33.5975 28.4311 36.2336 24.4077 36.974 22.6956C37.1221 20.8409 36.7075 16.6178 33.8641 14.5633C32.9214 13.8822 32.0178 13.339 31.1985 12.912M31.1985 12.912C29.5468 12.0512 28.2382 11.6626 27.6442 11.5672C24.9786 11.1392 19.1141 10.54 16.9816 11.5672C14.316 12.8512 7.65182 17.5595 5.87472 17.1314C4.09761 16.7034 1.87623 15.4194 3.65334 12.4232C5.07502 10.0263 8.98469 11.9952 10.7618 13.2793C11.9466 14.5633 14.316 17.9875 14.316 21.4116C14.316 25.6918 12.5389 29.5439 9.87326 30.828C7.74074 31.8552 7.50379 31.256 7.65188 30.828C9.51869 29.1159 13.6428 25.7774 15.2046 26.1198C17.1568 26.5478 19.6473 27.4039 21.8687 26.5478C24.0901 25.6918 30.31 21.8396 31.1985 18.4155C31.9094 15.6762 31.4947 13.6051 31.1985 12.912Z" stroke="white" stroke-width="2"/>
</svg>
