<svg width="40" height="49" viewBox="0 0 40 49" fill="none" xmlns="http://www.w3.org/2000/svg">

<path d="M16.8225 4L20.9946 13L13.6935 19L24.1236 27.5L9 41.5C10.7383 41 14.7365 40.3 16.8225 41.5C19.4301 43 20.4731 43 24.1236 40C27.7741 37 28.8171 35.5 27.7741 33.5C26.7311 31.5 25.1666 31 23.6021 30.5C22.0376 30 16.8225 30.5 15.258 29C13.6935 27.5 12.6505 27 14.215 25C15.4666 23.4 22.3852 18 25.6881 15.5C27.0788 14.6667 30.2773 13.4 31.9461 15C33.6149 16.6 33.3368 16.6667 32.9891 16.5" stroke="black"/>
</svg>
