<svg width="40" height="49"  viewBox="0 0 40 49" fill="none" xmlns="http://www.w3.org/2000/svg"><path d="M16.8 4.01a70.05 70.05 0 0 0-1.317.62c-.01.008.796 1.768 1.789 3.909.994 2.142 1.821 3.928 1.838 3.969.017.042-1.388 1.241-3.123 2.665a1854.387 1854.387 0 0 0-3.905 3.212l-.751.623 1.851 1.507 1.876 1.526c.013.01-.167.191-.4.401-.781.703-1.568 1.53-1.85 1.947-.68 1.001-.963 1.93-.82 2.697.148.796.402 1.188 1.444 2.225 1.292 1.288 1.789 1.582 3.247 1.927.415.097.797.19.85.206.118.035.699-.518-4.862 4.623-2.549 2.355-4.641 4.302-4.651 4.325-.016.042 1.283 2.392 1.378 2.493.027.028.362-.024.744-.116 2.002-.482 4.309-.554 5.429-.169.201.069.615.262.92.428 2.458 1.34 4.177 1.256 6.532-.319 1.835-1.229 4.394-3.488 5.44-4.804.813-1.024 1.26-2.265 1.181-3.28-.107-1.37-1.042-2.98-2.316-3.987-.556-.44-1.543-.965-2.341-1.245-.247-.087-.45-.176-.45-.197 0-.022.421-.425.935-.897.743-.682.917-.875.85-.938a495.743 495.743 0 0 0-3.218-2.628 529.444 529.444 0 0 1-3.222-2.631c-.072-.069.233-.34 1.667-1.481 2.812-2.239 4.822-3.769 5.306-4.036 1.307-.724 3.045-1.042 3.752-.687.127.064.463.344.747.624.493.485.513.497.449.276-.225-.779.525-1.727 1.368-1.729.501-.001.501-.003-.187 1.439l-.632 1.325.209.096c.329.151 1.023.127 1.353-.046.759-.399 1.035-1.333.636-2.156-.186-.384-1.203-1.525-1.761-1.976-1.422-1.147-3.289-1.314-5.718-.51-1.145.378-2.018.863-3.258 1.808a256.571 256.571 0 0 0-4.942 3.873c-.751.604-1.402 1.101-1.445 1.105-.043.003-.366-.228-.718-.513l-.639-.52 3.368-2.768c1.852-1.522 3.366-2.803 3.365-2.847-.004-.128-4.573-9.938-4.638-9.956-.033-.01-.645.255-1.36.587m2.883 21.809c1.164.948 2.114 1.745 2.111 1.77-.004.024-.264.281-.579.571l-.572.526-.832-.045c-1.419-.076-2.752-.304-3.241-.556-.299-.154-1.57-1.35-1.57-1.478 0-.276.669-1.041 1.79-2.048.366-.328.654-.54.7-.512.042.026 1.029.823 2.193 1.772m3.879 6.254c1.11.372 1.675.679 2.163 1.177.444.453.821 1.064.906 1.467.114.535-.37 1.286-1.577 2.452-1.843 1.782-3.971 3.366-4.984 3.712-.586.2-.908.122-2.247-.548-1.271-.635-1.937-.826-3.315-.95l-.925-.083 4.059-3.757 4.058-3.758.63.043c.432.03.821.107 1.232.245" fill-rule="evenodd" fill="#000"/></svg>