<svg width="40" height="49"  viewBox="0 0 40 49" fill="none" xmlns="http://www.w3.org/2000/svg"><path d="m7.883 11.183.017 7.184 4.433.092c2.439.051 4.439.096 4.446.101.007.005-.073.654-.177 1.441a149.35 149.35 0 0 0-.306 2.466l-.115 1.033h-2.674c-2.243 0-2.795.019-3.425.119-1.921.305-2.988.745-3.82 1.577C4.886 26.572 2.893 29.728 2.597 31c-.203.872-.03 2.14.413 3.022.853 1.702 2.555 2.981 5.072 3.809 1.459.48 1.847.536 3.685.532 1.577-.003 2.019-.042 3.575-.318l.509-.09.044.439c.121 1.209.59 2.917 1.053 3.835.49.973 1.143 1.764 1.965 2.382 2.875 2.161 7.992 2.528 10.04.721.578-.51 1.085-1.375 1.311-2.236.149-.572.177-1.402.064-1.896-.077-.334-.39-1.068-.454-1.064-.022.001-.581.371-1.241.822l-1.2.819-.041.331c-.044.36-.196.706-.413.943-.301.33-1.55.524-2.656.413-1.822-.184-3.451-.884-4.208-1.808-.643-.785-1.116-2.279-1.274-4.024l-.036-.402.448-.124c2.765-.767 7.617-2.654 10.714-4.168l1.333-.652.934-.959c2.631-2.704 4.444-4.924 5.091-6.235.435-.88.772-2.062.97-3.392.173-1.164.256-2.911.186-3.911-.06-.864-.075-.933-.3-1.334-.764-1.367-1.73-2.619-2.975-3.856-4.072-4.049-8.262-4.732-12.473-2.034-1.511.969-3.181 2.526-4.418 4.119-.228.294-.49.617-.582.718l-.166.183-3.334-.076-3.333-.076-.017-5.716L10.866 4h-3l.017 7.183m21.269.98c1.332.389 2.499 1.154 3.918 2.57.936.934 1.641 1.797 2.152 2.635l.245.401-.002 1.166c-.005 2.432-.39 4.235-1.15 5.374-.653.98-1.773 2.307-3.641 4.315l-1.107 1.191-.9.433c-2.716 1.306-6.086 2.655-8.8 3.521l-1.1.351-.022-1.477c-.024-1.717.103-5.717.185-5.799.031-.031.677-.003 1.436.062 1.601.136 2.527.085 3.666-.204.765-.194 1.524-.603 3.235-1.742 2.932-1.953 4.533-3.566 4.967-5.006a3.409 3.409 0 0 0-.209-2.454c-.218-.445-.813-1.024-1.314-1.278-.691-.352-.75-.357-5.109-.463-2.254-.055-4.112-.114-4.13-.131-.046-.047.948-1.038 1.528-1.523 1.371-1.147 2.612-1.825 3.8-2.077.631-.133 1.627-.076 2.352.135m-3.538 6.592c2.223.048 3.671.105 3.707.145.142.156-.074.526-.663 1.135-.939.971-2.454 2.108-4.239 3.182-1.007.606-1.183.664-2.29.758-.434.037-2.844-.14-2.922-.214-.034-.032.138-1.541.406-3.561l.207-1.567 1.073.022 4.721.1m-10.308 7.754.594.042-.047.574c-.026.316-.068 2.199-.092 4.183l-.046 3.608-.341.075c-1.503.33-3.269.489-4.434.398-1.725-.135-3.968-1.077-4.778-2.007-.379-.437-.629-1.013-.627-1.449.001-.312.053-.465.353-1.033.459-.87 1.212-2.015 1.941-2.949.513-.657.636-.774.995-.951.438-.215 1.104-.376 1.909-.462.62-.066 3.769-.086 4.573-.029" fill-rule="evenodd" fill="#000"/></svg>