<svg width="40" height="49"  viewBox="0 0 40 49" fill="none" xmlns="http://www.w3.org/2000/svg"><path d="M25.4.654c-1.744.577-4.632 2.916-6.518 5.279-1.042 1.306-2.038 2.96-2.291 3.805-.069.229-.103.265-.225.234l-.145-.036-.06 2.315a164.65 164.65 0 0 0-.056 3.982c.005 1.951.121 2.799.562 4.117.146.439.266.807.266.819 0 .038-1.474 1.189-2.414 1.884-.86.636-2.872 2.002-4.336 2.943-.357.23-.65.43-.65.444 0 .014.649.341 1.442.725 1.574.764 3.011 1.589 3.469 1.992.368.324.754 1.105.982 1.984.223.861.538 2.764.71 4.288.122 1.073.131 1.343.068 1.922-.173 1.597-.965 2.94-2.347 3.981-.939.708-2.391 1.313-3.538 1.473-.931.13-1.617-.12-2.375-.866-1.147-1.129-1.648-2.34-1.282-3.097.229-.473.847-.995 1.627-1.376.373-.181.774-.349.891-.372.405-.081.882.376 1.263 1.209.094.205.205.36.247.344.042-.015.684-.205 1.426-.421 1.236-.36 1.346-.404 1.309-.526-.131-.438-.489-1.185-.767-1.6-.91-1.361-2.402-2.164-3.715-2-1.249.156-2.975 1.056-4.003 2.087-1.868 1.873-1.909 4.281-.113 6.713 1.105 1.495 2.397 2.447 3.806 2.803 1.703.431 4.514-.277 6.581-1.656 2.885-1.924 4.326-4.916 3.992-8.282-.121-1.212-.453-3.468-.643-4.369-.552-2.615-1.313-4.017-2.668-4.915l-.506-.336 1.156-.864c.635-.476 1.288-.971 1.45-1.1l.295-.236.496.911c.583 1.071 2.407 4.198 2.472 4.239.025.015.359-.487.744-1.116.87-1.425 1.986-3.099 2.761-4.146.836-1.128 2.037-2.633 2.101-2.633.085 0 .863 1.775 1.005 2.295.175.641.372 1.828.507 3.054.084.76.122 1.913.151 4.549l.04 3.532.24-.298c1.503-1.863 10.301-13.351 10.397-13.576.687-1.601.86-3.766.423-5.289-.304-1.059-1.148-2.08-2.141-2.59-.889-.457-1.397-.564-2.686-.566-1.014-.002-1.147.012-1.7.181-1.781.545-3.027 1.333-5.458 3.454l-.282.245-.416-.545c-.466-.61-.461-.567-.145-1.313.116-.275.462-1.25.769-2.166C28.426 9.6 28.782 8.174 29 6.433c.199-1.587.22-2.016.134-2.733-.187-1.557-.685-2.43-1.682-2.944C27.15.6 27.005.571 26.433.554c-.508-.016-.753.008-1.033.1m.742 3.81c0 .363-.031.894-.069 1.181l-.141 1.075c-.134 1.013-.815 3.464-1.469 5.289-.148.414-.28.763-.292.776-.013.012-.198-.089-.411-.226-.598-.382-2.29-1.176-3.327-1.561-.513-.19-.942-.354-.954-.365-.05-.046.552-1.139.977-1.773.635-.947 1.367-1.804 2.386-2.794.983-.956 1.778-1.595 2.61-2.099.462-.279.592-.332.636-.257.03.051.054.391.054.754m-5.975 9.648c1.127.457 2.495 1.217 2.498 1.388.003.229-3.118 3.558-3.256 3.472-.086-.053-.26-1.08-.313-1.857-.025-.359-.024-1.267.003-2.019.049-1.355.05-1.367.192-1.324.078.024.472.177.876.34m15.665 1.299c.405.134.801.554.928.984.204.692.079 2.17-.249 2.957-.088.21-4.966 6.592-5.104 6.677-.03.018-.105-.348-.167-.814-.304-2.292-.699-3.518-1.829-5.665l-.394-.751.599-.57c1.526-1.452 3.19-2.555 4.317-2.862.431-.117 1.485-.093 1.899.044m-10.801 2.7.213.316-.859 1.026c-.762.912-2.331 2.958-2.785 3.632-.092.136-.182.247-.2.247-.018-.001-.193-.303-.387-.672l-.354-.671 1.421-1.385c.781-.762 1.703-1.719 2.049-2.127.345-.408.642-.728.659-.712.016.017.126.173.243.346" fill-rule="evenodd" fill="#000"/></svg>