<svg width="40" height="49"  viewBox="0 0 40 49" fill="none" xmlns="http://www.w3.org/2000/svg"><path d="M33.255 11.661c-1.156.252-2.159.785-2.959 1.572-.625.616-1.01 1.16-1.361 1.925-.577 1.257-1.241 3.735-1.543 5.759l-.082.55-.772-.003c-1.717-.005-4.515-.132-5.771-.262-5.12-.53-13.185-1.837-14.234-2.307-.445-.2-.748-.487-.901-.854-.127-.305-.142-.9-.028-1.12.307-.59.969-1.054 1.505-1.054.282 0 .283.001.323.283a2.18 2.18 0 0 1-.021.605c-.045.23-.041.329.013.348.284.098 2.799.696 2.824.672.062-.062.148-.555.187-1.075.104-1.355-.409-2.632-1.32-3.286-1.013-.728-2.737-.741-4.065-.032-.921.493-1.893 1.582-2.275 2.551-.459 1.164-.312 2.692.37 3.856.259.442.964 1.178 1.377 1.438l.288.181-.301.265c-.41.36-.813.983-.981 1.517-.35 1.107-.012 3.228.7 4.401.729 1.201 1.966 1.83 3.186 1.62.718-.123 1.129-.354 1.787-1.005.685-.678.958-1.158 1.091-1.923l.038-.216H8.832c-1.343 0-1.499-.012-1.499-.109 0-.08-.037-.062-.138.066-.181.23-.301.222-.43-.028-.167-.321-.365-1.182-.365-1.582 0-.328.023-.386.225-.577.598-.564 2.803-.867 5.146-.706.621.042 2.059.208 3.196.368 1.136.159 2.366.327 2.733.371.482.059.944.179 1.667.432 2.186.767 3.963 1.485 5.8 2.344.586.274 1.204.558 1.373.631l.307.132.04 1.579c.056 2.246.241 3.651.653 4.977.537 1.729 1.288 2.619 2.679 3.179 1.723.692 3.952.303 5.514-.963.815-.661 1.104-1.298 1.095-2.414-.004-.568-.037-.761-.22-1.3-.579-1.701-2.126-3.661-3.984-5.047-.691-.515-1.996-1.366-2.476-1.615-.145-.075-.152-.11-.134-.725l.019-.647.467-.051c2.594-.288 4.085-.67 5.433-1.393 2.119-1.136 3.26-2.985 3.531-5.722.167-1.687-.329-3.304-1.34-4.367-.569-.599-1.054-.932-1.684-1.154-.66-.233-2.308-.277-3.185-.085m2.126 2.912c.306.046.593.315.839.786.21.401.213.423.211 1.308-.007 2.226-.871 3.415-2.998 4.124-.719.24-1.763.456-2.509.518l-.544.045.046-.36c.176-1.374.988-4.193 1.409-4.894.752-1.251 1.952-1.769 3.546-1.527m-4.754 15.08c.699.498 1.783 1.569 2.308 2.28.424.575.821 1.331.897 1.708.038.192.017.223-.279.411-.731.465-1.692.562-2.343.236-.426-.213-.579-.432-.801-1.149-.247-.797-.319-1.304-.509-3.563-.04-.471-.042-.471.727.077" fill-rule="evenodd" fill="#000"/></svg>