<svg width="40" height="49" viewBox="0 0 40 49" fill="none" xmlns="http://www.w3.org/2000/svg">

<path d="M8.81296 17.4521C9.07555 16.4117 9.12807 14.3307 7.23743 14.3307C5.34678 14.3307 4.34894 15.8914 4.08635 16.6718C3.82377 17.7123 4.00758 19.9493 6.84354 20.5736C8.50454 20.9393 11.5491 21.4762 14.7212 21.9437M18.6601 22.4742C20.8568 22.7382 22.8497 22.9147 24.1744 22.9147C28.1133 22.9147 35.9909 23.6951 37.5665 19.0129C38.8269 15.2671 37.0413 13.5503 35.9909 13.1601C34.5467 12.7699 31.3431 12.848 30.0827 16.2816C28.8223 19.7152 28.5072 23.6951 28.5072 25.2559C28.2446 28.1172 28.192 34.1521 30.0827 35.4007C31.9733 36.6493 34.0215 35.6608 34.8093 35.0105C35.4658 34.6203 36.0697 33.0596 33.2338 29.9381C30.3978 26.8166 22.3363 23.6615 18.6601 22.4742ZM18.6601 22.4742C17.3855 22.321 16.0423 22.1384 14.7212 21.9437M14.7212 21.9437C11.3076 21.357 4.55902 21.0419 4.87412 24.4755C5.18923 27.9091 6.84354 27.9872 7.63131 27.597C8.02519 27.3369 8.81296 26.6605 8.81296 26.0362" stroke="black"/>
</svg>
