<svg width="40" height="49"  viewBox="0 0 40 49" fill="none" xmlns="http://www.w3.org/2000/svg"><path d="M19.367 5.673c-1.811.148-3.482.603-5 1.36-.477.238-.935.486-1.018.551l-.151.118.775 1.132c.426.623.813 1.173.859 1.222.071.074.133.059.37-.091.158-.099.474-.265.704-.368C16.302 9.42 17.497 9 17.607 9c.029 0-.095.308-.273.683-.544 1.145-.813 2.294-.923 3.938-.061.897-.023 1.434.18 2.579.448 2.53 1.446 4.589 2.939 6.067 1.142 1.129 2.432 1.776 4.451 2.231 1.903.43 3.601.506 7.47.337 1.77-.078 2.855-.099 3.116-.06l.4.058.208.6c.115.33.198.62.184.644-.035.059-.755.174-1.659.266-.485.049-3.912.083-10.133.102-9.147.028-9.414.032-9.904.162-.443.118-.571.125-1.065.063-.806-.101-2.4-.086-3.287.03-1.941.254-3.468.89-5.562 2.315-1.933 1.316-2.615 2.554-2.054 3.732.126.266.647.786.787.786.046 0 .355-.573.685-1.273.33-.7.639-1.289.686-1.308.118-.048.404.231.519.506.052.124.095.355.095.513v.288l.216-.204c.33-.31 1.599-1.131 2.384-1.543.667-.35 1.46-.642 2.034-.75l.264-.05-.214.244a9.604 9.604 0 0 0-.543.732c-1.045 1.548-1.535 3.236-1.344 4.625.202 1.476.971 2.865 2.333 4.22.875.87 1.615 1.43 2.546 1.928 2.889 1.543 5.63 1.351 7.529-.527a6.181 6.181 0 0 0 1.336-1.901c.618-1.319.894-2.585.837-3.833-.052-1.14-.282-2.056-.785-3.131-.387-.825-1.228-2.072-1.616-2.394-.061-.05-.111-.118-.111-.15 0-.033 2.426-.059 5.584-.06 7.708-.001 9.644-.088 11.198-.498.769-.204 1.211-.425 1.634-.821.62-.58.847-1.318.683-2.218-.112-.609-.712-2.459-.892-2.749-.21-.337-.677-.755-1.055-.944-.976-.487-1.832-.558-4.952-.411-2.712.128-3.962.138-4.943.041-2.149-.214-3.819-.736-4.655-1.456l-.298-.257.598.097c.868.141 3.089.077 3.991-.115 1.528-.326 2.508-.815 3.465-1.73 2.257-2.159 2.376-5.246.319-8.337-.494-.744-1.615-1.863-2.395-2.391-1.651-1.119-3.799-1.827-6.078-2.006-.987-.077-1.192-.077-2.17.003m3.868 3.296a9.354 9.354 0 0 1 2.326.954c.661.388 1.584 1.256 2.005 1.884.802 1.195 1.107 2.572.757 3.414-.603 1.446-2.018 2.111-4.494 2.112-1.271.001-2.082-.175-2.974-.644-.572-.3-.988-.695-1.228-1.165-.177-.347-.182-.388-.179-1.457.002-.969.024-1.18.178-1.767.21-.801.656-1.726 1.092-2.268.358-.445 1.451-1.232 1.71-1.232.087 0 .45.076.807.169M14.7 30.097c1.18.342 1.596.59 2.36 1.406 1.529 1.635 2.085 3.405 1.633 5.197-.177.701-.665 1.617-1.084 2.033-.924.918-2.033 1-3.701.273-1.286-.561-2.898-2.11-3.441-3.306-.191-.422-.256-1.295-.13-1.751.345-1.246 1.554-2.827 2.863-3.742.564-.393.529-.391 1.5-.11" fill-rule="evenodd" fill="#000"/></svg>