<svg width="40" height="49"  viewBox="0 0 40 49" fill="none" xmlns="http://www.w3.org/2000/svg"><path d="M14.907 1.665c-1.464.395-3.025 1.656-3.674 2.967-.474.96-.595 1.572-.595 3.001.001 1.323.08 1.906.464 3.4.406 1.584 1.049 3.321 1.843 4.977l.404.844-1.382 2.09c-.76 1.149-1.508 2.239-1.662 2.423-1.081 1.284-1.767 2.867-1.784 4.119-.017 1.181.463 2.091 1.436 2.723.936.608 2.118.913 3.758.97l1.149.04.04.241c.162.966.392 1.506.965 2.264.383.506 1.472 1.608 2.222 2.247l.392.334-.492.395c-2.32 1.862-3.311 2.927-3.985 4.282-.765 1.538-.763 2.986.006 4.264.316.526 1.19 1.327 1.859 1.705 1.033.583 2.779 1.178 4.162 1.417.935.162 2.217.152 3.034-.024 2.032-.438 3.493-1.594 4.428-3.503.424-.866.536-1.329.528-2.174-.011-1.141-.427-2.3-1.288-3.587-.654-.978-1.204-1.513-2.198-2.139-.478-.302-.87-.571-.87-.597 0-.027.382-.278.85-.558 1.945-1.167 3.692-1.953 4.416-1.988.622-.03.686.046.694.83l.006.531 1.422.294c.781.161 1.435.279 1.452.262.086-.086.168-.946.137-1.424-.12-1.809-1.071-3.076-2.569-3.425-.521-.121-1.842-.049-2.462.134-1.489.439-3.72 1.573-5.847 2.971l-.768.505-.715-.584c-.885-.722-2.085-1.921-2.232-2.23a2.36 2.36 0 0 1-.154-.571l-.045-.341.357-.084c.586-.139 1.863-.596 2.27-.812.587-.312 1.145-.825 1.723-1.582l.169-.222.56.282c2.128 1.07 4.604.72 6.869-.97.697-.52 1.952-1.79 2.361-2.389.448-.654.884-2.209 1.136-4.04.147-1.069.235-2.883.168-3.475-.237-2.117-1.987-3.535-5.065-4.106-.493-.091-.972-.116-2.167-.113-1.474.004-1.556.011-2.131.187-2.266.691-4.61 2.652-6.401 5.357-.177.266-.343.484-.37.484-.026 0-.127-.103-.223-.23l-.175-.229.691-1.121c1.413-2.293 2.484-4.21 2.88-5.154a8.64 8.64 0 0 0 .573-2.245c.21-1.803-.403-4.091-1.377-5.143-.692-.748-1.607-1.297-2.517-1.512-.587-.138-1.702-.122-2.276.032m2.145 3.126c.574.368.882 1.022 1.021 2.164.163 1.341-.133 2.253-1.512 4.656-.631 1.1-1.304 2.201-1.33 2.175-.01-.011-.168-.394-.35-.853-1.183-2.973-1.565-5.572-1.009-6.865.184-.427.833-1.043 1.405-1.332.39-.197.463-.212.933-.186.433.023.559.059.842.241m10.7 9.508c.81.122 1.3.261 1.815.514.785.385.9.586.9 1.572 0 1.317-.264 3.234-.601 4.369-.123.416-.219.578-.607 1.031-1.124 1.314-2.57 2.148-3.723 2.148a3.098 3.098 0 0 1-1.501-.408c-.21-.123-.239-.168-.201-.316.11-.439 1.089-2.275 1.568-2.941.285-.397.702-.994.926-1.326.41-.61 1.339-2.2 1.339-2.292 0-.027-.598-.349-1.329-.714l-1.328-.665-.282.514a21.72 21.72 0 0 1-1.542 2.417c-.681.934-.921 1.329-1.446 2.381-.224.449-.425.817-.447.817-.055 0-1.519-1.397-1.684-1.607l-.137-.174.402-.659c.879-1.443 2.062-2.804 3.126-3.598.619-.462 1.485-.926 1.983-1.063.436-.12 1.972-.12 2.769 0M15.595 19.88l.282.313-.267.761a16.942 16.942 0 0 0-.919 4.508l-.045.756-.907-.038c-.928-.04-1.492-.152-1.961-.391-.257-.131-.26-.137-.23-.454.044-.453.494-1.321 1.056-2.035.259-.33.956-1.327 1.548-2.216.592-.889 1.095-1.594 1.118-1.567l.325.363m4.338 4.383c0 .02-.135.209-.3.419-.189.241-.417.442-.616.542-.393.198-1.267.482-1.32.429-.087-.088.239-2.126.444-2.768l.068-.215.862.778c.474.428.862.795.862.815m2.34 12.78c.704.463 1.374.947 1.487 1.076.759.857 1.238 1.861 1.249 2.615.004.324-.036.464-.246.864-1.013 1.928-2.907 2.379-5.854 1.394-1.306-.437-2.033-.846-2.316-1.303-.114-.185-.136-.305-.114-.62.059-.81.719-1.732 2.128-2.969.73-.642 2.294-1.9 2.361-1.9.013 0 .6.379 1.305.843" fill-rule="evenodd" fill="#000"/></svg>