<svg width="40" height="49"  viewBox="0 0 40 49" fill="none" xmlns="http://www.w3.org/2000/svg"><path d="m27.167 6.576-1.234.196c-4.128.662-7.585 1.981-9.26 3.532-.802.743-1.107 1.268-1.673 2.876-.178.506-.348.915-.379.909-.03-.006-1.462-.764-3.183-1.684-1.721-.919-3.146-1.672-3.168-1.672-.041 0-1.357 2.425-1.388 2.558-.009.042 1.529.901 3.418 1.909 1.89 1.008 3.428 1.866 3.418 1.907-.01.04-.317 1.049-.682 2.243l-.665 2.17-.469.181c-.65.25-2.517 1.155-3.398 1.646-2.218 1.236-4.179 3.298-4.733 4.977-.376 1.14-.36 1.941.054 2.839.562 1.217 1.584 1.9 2.842 1.901 1.605.002 3.503-1.325 5.444-3.805 1.304-1.668 1.876-2.72 2.39-4.401l.318-1.042.507-.136c.85-.228 1.28-.296 1.873-.296.646.001 1.096.146 2.818.91l.95.421.017 3.5.017 3.5-.917.801c-1.999 1.746-3.455 3.433-4.142 4.799-.545 1.083-.689 2.001-.546 3.479.217 2.24.903 3.442 2.149 3.765.538.139 1.76.047 2.503-.189.657-.209 1.419-.698 1.854-1.19 1.292-1.461 1.994-4.297 2.136-8.629l.047-1.415.507-.39c1.782-1.368 3.958-2.776 7.365-4.763l.856-.5-.79-.433c-3.009-1.651-6.048-3.233-8.452-4.4-.795-.386-1.445-.724-1.445-.75 0-.105 8.27-3.713 10.222-4.461a22.71 22.71 0 0 1 1.9-.618c.915-.242.925-.243 2.569-.272.907-.016 1.65-.045 1.65-.064 0-.063-1.211-2.229-1.666-2.982-1.447-2.39-3.371-4.553-5.099-5.729-.595-.406-1.689-.943-2.202-1.082-.391-.106-1.9-.181-2.333-.116m1.99 3.179c1.165.528 2.79 2.047 4.137 3.869.154.207.173.268.098.316a.412.412 0 0 1-.177.059c-.187.002-1.651.512-2.782.969-1.263.511-4.134 1.743-6.432 2.761-.751.332-1.388.604-1.414.604-.064 0-5.067-2.665-5.153-2.745-.082-.075.495-1.815.816-2.464.241-.487.51-.743 1.287-1.222 1.196-.737 3.451-1.511 5.751-1.972 2.198-.441 3.182-.486 3.869-.175m-11.518 9.362c.601.321 1.093.601 1.094.624 0 .023-.532.168-1.183.323s-1.287.308-1.413.341c-.126.032-.244.044-.261.026-.051-.051.541-1.898.608-1.898.034 0 .554.263 1.155.584m-6.614 6.433c-.203.393-.886 1.372-1.42 2.033-1.206 1.494-2.789 2.761-3.011 2.409-.167-.264-.004-.829.417-1.442.327-.476 1.285-1.444 1.853-1.871.386-.29 2.153-1.345 2.254-1.346.01 0-.031.098-.093.217m14.498 1.428 1.224.637-.721.466c-.397.256-1 .66-1.34.897l-.619.432v-1.579c0-1.476.007-1.576.116-1.534.064.025.668.331 1.34.681m-4.57 9.172c-.196 2.457-.749 4.522-1.364 5.097-.364.34-.984.435-1.087.168-.023-.061-.075-.517-.115-1.013-.064-.782-.059-.951.034-1.269.131-.443.484-1.051.956-1.643.446-.559 1.484-1.69 1.552-1.69.028 0 .039.157.024.35" fill-rule="evenodd" fill="#000"/></svg>