<svg width="40" height="49" viewBox="0 0 40 49" fill="none" xmlns="http://www.w3.org/2000/svg">

<path d="M30.8231 36.5874C30.0579 36.7368 28.5274 37.484 28.5274 39.2772C28.5274 40.7117 29.7518 41.9669 30.364 42.4152C32.0475 43.013 35.5064 43.6705 35.8737 41.5187C36.241 39.3668 35.7206 37.9323 35.4145 37.484C35.1084 37.0357 34.1289 36.1391 32.6597 36.1391C31.1904 36.1391 27.7622 37.6334 26.2317 38.3806C25.4665 38.6795 23.6605 38.8289 22.5586 37.0357C21.4566 35.2425 20.5689 33.0011 20.2628 32.1045V14.1727C20.2628 11.7818 19.1609 7 14.7531 7C10.3454 7 7.10078 9.68976 6.02945 11.0346C4.65203 12.8278 2.17266 16.9521 3.2746 19.1039C4.37654 21.2558 5.26424 21.7937 5.57034 21.7937C6.33558 21.196 8.23336 20.3592 9.70262 21.7937C11.1719 23.2282 13.0697 24.4835 13.8349 24.9318C17.8141 26.2766 26.0481 29.1457 27.15 29.863C28.2519 30.5803 15.9775 33.1505 9.70262 34.3459C9.85567 33.2999 10.6209 30.2216 12.4575 26.2766C14.294 22.3317 16.2836 19.2534 17.0489 18.2074" stroke="black"/>
</svg>
