<svg width="40" height="49"  viewBox="0 0 40 49" fill="none" xmlns="http://www.w3.org/2000/svg"><path d="M13.203 5.606c-2.276.294-4.521 1.231-6.469 2.7-1.496 1.128-2.832 2.865-3.971 5.161-1.13 2.277-1.493 4.128-1.099 5.6.11.411.59 1.354 1.028 2.016.946 1.436 1.809 2.104 2.856 2.214l.447.046.428-.305c.508-.362.879-.505 1.314-.505.458 0 .626.083 1.185.587a28.098 28.098 0 0 0 1.941 1.611c.263.194.464.387.447.428-.017.041-.232.524-.478 1.074C9.695 28.78 8.729 31.597 8.34 33.5c-.178.874-.434 2.628-.39 2.672.062.062 7.36-1.379 10.178-2.009.565-.126 1.069-.23 1.12-.23.051 0 .155.143.231.317 1.46 3.347 2.327 4.627 3.568 5.267.823.424 1.194.512 2.153.511.807-.002 1.107-.058 1.75-.327.092-.038.117-.015.117.109 0 .252.242 1.029.452 1.448.432.866 1.118 1.712 1.834 2.265.657.507 2.593.957 4.114.956 1.666-.001 2.86-.559 3.495-1.635.403-.683.606-2.091.498-3.46-.18-2.277-1.087-3.615-2.972-4.379-1.758-.713-3.79-.302-8.034 1.624-.647.294-1.046.438-1.217.438a1.47 1.47 0 0 1-1.072-.432c-.292-.292-.923-1.38-1.43-2.464-.466-.999-.46-.951-.122-1.037 1.191-.302 3.108-.843 3.703-1.043 1.449-.488 2.113-.956 2.313-1.63.13-.438.13-.55.001-.986-.144-.484-.487-.804-1.256-1.173-.669-.321-2.78-1.161-4.524-1.8l-1.05-.385-.001-5.842c0-3.247-.03-6.255-.067-6.771a12.389 12.389 0 0 0-.643-3.125c-.447-1.284-.979-2.153-1.848-3.016-1.348-1.338-2.618-1.836-4.641-1.82-.532.004-1.16.032-1.397.063m2.812 3.12c1.299.506 2.216 1.909 2.585 3.956.127.704.133 1.03.133 6.53 0 3.183-.019 5.788-.043 5.788-.087 0-3.192-1.088-3.249-1.138-.095-.085 1.276-2.472 2.298-4.001l.516-.773-1.144-.832a74.675 74.675 0 0 0-1.219-.876c-.044-.026-.264.233-.542.638-.478.698-1.853 2.965-2.322 3.832-.144.265-.288.483-.32.483-.084.001-1.166-.88-1.852-1.506-.642-.586-1.104-.889-1.694-1.11-.341-.127-.528-.148-1.362-.148-.912-.001-1 .011-1.567.208-.33.115-.622.196-.65.179-.081-.05-.541-.752-.814-1.245l-.253-.455.035-.645c.043-.805.278-1.543.884-2.773.703-1.428 1.561-2.706 2.318-3.453 1.269-1.251 3.342-2.341 5.103-2.682.787-.153.848-.158 1.844-.141.782.013.995.04 1.315.164m-.353 18.415c.864.298 1.909.661 2.323.808l.751.266-.018 1.375-.018 1.376-1.133.249c-2.532.556-5.768 1.206-5.808 1.166-.148-.148 2.057-5.781 2.263-5.781.038 0 .776.244 1.64.541m7.005 2.495c.332.127.525.233.466.255-.155.058-1.18.309-1.261.309-.044 0-.072-.168-.072-.438 0-.505-.088-.492.867-.126m10.696 8.14c.411.14.865.574.968.924.104.354.165 1.634.105 2.194-.043.401-.066.454-.225.519-.233.094-1.331.088-1.867-.01-1.146-.21-1.524-.444-2.007-1.239-.233-.385-.334-.902-.245-1.256.069-.276.375-.576.802-.785.862-.423 1.842-.561 2.469-.347" fill-rule="evenodd" fill="#000"/></svg>