<svg width="40" height="49"  viewBox="0 0 40 49" fill="none" xmlns="http://www.w3.org/2000/svg"><path d="M3.022 14.617c.064 4.531.191 7.233.448 9.502.209 1.849.156 2.984-.198 4.248-.197.704-.39 1.086-1.226 2.433-.421.678-.736 1.244-.698 1.258.097.036 8.742-.211 10.261-.293l.708-.038.048.453c.087.829.37 2.304.528 2.76.223.639.664 1.264 1.419 2.011 1.032 1.021 2.301 1.967 4.071 3.036 3.186 1.923 5.119 2.496 8.45 2.507.857.003 1.717-.03 2.067-.08 3.559-.503 5.956-1.736 7.227-3.717 1.363-2.125 2.079-6.011 1.871-10.164-.043-.861-.089-1.578-.103-1.593-.059-.06-6.672.425-9.028.663-.715.072-1.975.22-2.8.329-.825.108-1.875.228-2.334.264-2.073.168-8.602.475-8.677.409-.069-.06-.189-1.761-.235-3.322l-.042-1.416.327-.003c2.786-.025 17.715-.392 17.759-.437.142-.143.67-1.649.797-2.271.152-.746.178-1.624.064-2.169-.124-.598-.417-1.117-.972-1.721-.621-.676-.946-1.111-1.219-1.629l-.202-.384v-3.72H2.978l.044 3.084m10.016.1c-.092.434-.905 5.955-.905 6.15 0 .028-.919.072-2.042.099l-2.042.05.042.442c.023.243.042.918.042 1.501v1.058l1.823-.048 1.823-.049.041 1.59c.023.875.074 1.946.114 2.381.04.435.055.809.034.83-.048.048-5.631.238-5.676.193-.018-.017.033-.343.113-.723.221-1.061.249-2.686.071-4.292-.24-2.171-.407-5.514-.409-8.149v-1.217h7.01l-.039.184m15.257.333c.066.744.148 1.035.503 1.783.354.747.903 1.544 1.571 2.282l.448.495-.034.432c-.019.238-.047.444-.062.46-.04.039-15.477.365-15.515.327-.045-.046.806-5.956.894-6.212.023-.066 1.301-.084 6.089-.084h6.059l.047.517m6.685 16.133c-.102 2.66-.687 4.969-1.564 6.172-1.074 1.473-4.625 2.43-7.826 2.109-1.032-.103-1.811-.25-2.496-.469-1.852-.594-5.672-3.025-6.922-4.407-.461-.509-.611-.992-.806-2.591l-.045-.369 2.056-.084c4.351-.177 7.266-.377 8.854-.61 1.259-.184 3.051-.372 5.369-.563 2.631-.217 2.567-.212 3.027-.226l.394-.012-.041 1.05" fill-rule="evenodd" fill="#000"/></svg>