<svg width="40" height="49"  viewBox="0 0 40 49" fill="none" xmlns="http://www.w3.org/2000/svg"><path d="M21.067 2.577c-1.633.21-4.133 1.134-5.85 2.164-1.11.664-2.804 2.208-3.579 3.259-1.037 1.408-1.37 3.244-.794 4.382.34.672.275.695 1.428-.51.932-.974 1.031-1.059 1.133-.968.102.093.118.074.191-.218.154-.62.676-1.292 1.791-2.308 1.151-1.049 2.448-1.778 4.174-2.347 2.008-.66 3.389-.701 4.503-.131.636.325.936.816.936 1.531v.436h-.65c-.826.001-1.581.178-2.386.559-1.308.62-2.627 1.684-3.873 3.124-.214.246-.319.317-.474.317-.381 0-1.491.328-2.123.628-1.557.737-2.783 1.835-3.876 3.472-1.727 2.585-2.746 5.266-3.024 7.958-.099.961-.043 3.197.105 4.142.51 3.263 1.533 5.566 3.231 7.273 1.182 1.189 2.348 1.849 3.998 2.264.162.041.265.094.228.118-.037.025-2.22 1.379-4.85 3.01-4.022 2.493-4.758 2.972-4.628 3.013.384.118 7.343 1.131 10.189 1.483 4.959.612 7.22.798 9.733.802 2.257.004 2.55-.035 3.349-.438 1.466-.74 2.524-1.886 2.685-2.909l.044-.283h-1.474c-1.243 0-1.481-.016-1.513-.099-.03-.078-.096-.052-.314.124-.587.473-.857.582-1.593.647-1.505.131-6.033-.227-11.055-.874A72.014 72.014 0 0 0 15.115 42c-.157 0 .176-.218 3.115-2.036 2.204-1.364 3.086-1.875 3.335-1.933.464-.108.703-.243.986-.555.476-.528.508-1.358.071-1.877-.094-.112-.161-.215-.147-.228.014-.014.235.017.492.067.613.119 1.896.12 2.51.001 1.682-.325 3.389-1.406 4.304-2.726.227-.328.346-.98.35-1.915.01-2.78-1.131-5.762-3.184-8.323-.283-.352-1.049-1.186-1.704-1.855l-1.19-1.215.448-.686c1.196-1.83 3.225-4.32 5.182-6.358l.583-.607-.163-.478c-.236-.694-.488-1.124-.903-1.541-.322-.324-1.067-.88-1.268-.947-.05-.016-.048-.171.006-.522.106-.676.044-1.785-.13-2.333-.404-1.272-1.463-2.351-2.882-2.936-.823-.34-1.255-.415-2.493-.433-.623-.009-1.238-.003-1.366.013m4.3 8.425c.256.066.611.182.788.259l.323.139-.464.517c-1.169 1.303-3.008 3.63-3.716 4.704l-.255.387-.491-.754c-.51-.785-1.089-1.859-1.254-2.326l-.096-.272.682-.702c1.428-1.469 2.732-2.216 3.683-2.109.183.02.543.091.8.157m-7.374 5.034a21.401 21.401 0 0 0 2.026 3.249l.442.585-.291 1.015c-.511 1.786-.938 4.137-1.11 6.115-.118 1.36-.043 3.366.162 4.343.276 1.317.785 2.327 1.526 3.027.247.234.407.409.357.389-.051-.019-.215.042-.364.136-.327.207-.479.211-2.121.068-1.833-.16-2.541-.341-3.525-.903-2.175-1.244-3.556-4.558-3.565-8.557-.005-2.191.469-4.038 1.594-6.203 1.016-1.955 2.016-3.16 3.238-3.9.232-.141 1.05-.473 1.085-.441.007.007.253.491.546 1.077m5.582 7.181c.863.89 1.287 1.405 1.807 2.198 1.089 1.66 1.751 3.634 1.751 5.229v.61l-.335.302a3.968 3.968 0 0 1-2.129.972c-.495.061-1.335-.023-1.595-.158-.437-.229-.703-.694-.917-1.609-.103-.44-.124-.805-.123-2.194 0-1.613.023-1.91.272-3.467.146-.913.506-2.567.559-2.567.026 0 .346.308.71.684" fill-rule="evenodd" fill="#000"/></svg>