<svg width="40" height="49" viewBox="0 0 40 49" fill="none" xmlns="http://www.w3.org/2000/svg">

<path opacity="0.9" d="M18.5794 13.3664C17.5298 13.1997 14.9059 13.6664 12.8068 16.8664C10.1829 20.8664 9.65809 24.3663 10.1829 27.8663C10.7077 31.3663 12.2821 35.8663 17.5299 36.3663C19.2688 36.532 20.2874 36.589 20.8469 36.5872M18.5794 13.3664C19.629 11.8664 22.3579 8.96637 24.8768 9.36637C25.2617 9.4275 25.6107 9.50497 25.9264 9.59415M18.5794 13.3664C18.7207 14.3087 19.6608 16.6644 22.2293 19.6433M20.8469 36.5872C21.6382 36.5845 21.5109 36.464 21.2034 36.3663L20.8469 36.5872ZM20.8469 36.5872L10.7077 42.8663C16.1305 43.6997 27.3959 45.1663 29.0752 44.3663C30.7545 43.5663 31.1743 42.6997 31.1743 42.3663M22.2293 19.6433C23.6219 16.8497 26.8852 13.0971 28.5503 11.3664C28.4021 10.9428 27.6764 10.0885 25.9264 9.59415M22.2293 19.6433C22.0126 20.0779 21.8412 20.4894 21.7281 20.8664C20.6785 24.3664 19.1042 32.8664 22.7777 33.8664C25.7165 34.6664 27.8506 32.8664 28.5503 31.8664C28.9002 30.1997 28.5503 25.8664 24.352 21.8664C23.5447 21.0971 22.8408 20.3525 22.2293 19.6433ZM25.9264 9.59415C26.6261 8.35155 27.2908 5.56637 24.352 4.36637C21.4132 3.16637 17.18 5.1997 15.4307 6.36636C14.5561 7.03301 12.7018 8.66631 12.282 9.86633C11.8622 11.0664 12.1071 11.6997 12.282 11.8663" stroke="black"/>
</svg>
