<svg width="40" height="49" viewBox="0 0 40 49" fill="none" xmlns="http://www.w3.org/2000/svg">

<path d="M9.37904 4C9.37904 6.57862 9.37904 12.1656 9.37904 13.8847C9.37904 15.6038 9.37904 16.6066 9.37904 16.8931L29.0694 17.3229C29.7987 17.3229 31.1697 17.7526 30.8197 19.4717C30.4696 21.1908 26.2982 23.9126 24.2562 25.0587C23.9645 25.202 23.031 25.4885 21.6308 25.4885C19.8806 25.4885 9.37904 23.7694 7.19122 26.348C5.44096 28.4109 4.41998 30.3592 4.12827 31.0755C3.6907 32.3648 4.12827 35.2872 9.37904 36.6625C14.6298 38.0377 25.5689 33.5108 30.382 31.0755C31.5489 29.9294 34.2326 27.1216 35.6328 25.0587C37.033 22.9958 37.0914 19.0419 36.9455 17.3229C35.7787 15.174 32.3948 10.7904 28.1942 10.4465C23.9936 10.1027 20.0264 14.601 18.5678 16.8931C18.1302 19.615 17.2551 26.0901 17.2551 30.2159C17.2551 35.3732 16.8176 40.1006 19.0054 42.6792C21.1932 45.2579 26.8815 45.6876 28.1942 43.9686C29.2444 42.5933 28.9235 41.3899 28.6318 40.9602" stroke-width="4" stroke="black"/>
</svg>
