<svg width="40" height="49" viewBox="0 0 40 49" fill="none" xmlns="http://www.w3.org/2000/svg">

<path d="M12.0267 38.2526C11.6831 37.0859 10.4804 34.9526 8.4187 35.7526C5.84153 36.7526 3.77979 38.7526 5.84153 41.7526C7.90327 44.7526 9.96509 44.7526 12.5423 43.7526C15.1194 42.7526 18.212 40.2526 17.6966 35.7526C17.1812 31.2526 16.6657 28.7526 15.1194 27.7526C13.8824 26.9526 12.8859 26.4192 12.5423 26.2526C16.1503 23.9192 23.7787 18.1526 25.4281 13.7526C27.0775 9.35256 27.4899 6.91922 27.4899 6.25256C27.8335 4.41922 27.9022 1.05256 25.4281 2.25256C22.3355 3.75256 17.6966 8.75256 17.6966 11.7526M17.6966 11.7526C17.6966 14.7526 17.1812 17.7526 18.212 20.2526C19.0367 22.2526 20.6174 25.0859 21.3047 26.2526C23.8818 22.0859 30.1701 13.7526 34.706 13.7526C39.2418 13.7526 38.6576 18.0859 37.7986 20.2526L30.0671 30.2526C30.0671 28.4192 29.8609 24.2526 29.0362 22.2526C28.0053 19.7526 25.4281 15.2526 22.851 13.7526C20.7892 12.5526 18.5557 11.9192 17.6966 11.7526Z" stroke-width="4" stroke="black"/>
</svg>
