<svg width="40" height="49" viewBox="0 0 40 49" fill="none" xmlns="http://www.w3.org/2000/svg">

<path d="M14.0363 8.91791C15.3153 8.04007 18.5396 6.67983 22.3354 7.24473M22.3354 7.24473C22.9603 7.33774 23.6007 7.48293 24.2505 7.69106C28.847 9.16328 29.9961 12.803 29.9961 14.4388C29.9961 15.6656 29.1023 18.242 25.5273 18.7328C21.0586 19.3462 17.8666 17.5059 17.8666 14.4388C17.8666 12.1869 18.5548 10.2657 19.6787 8.91791M22.3354 7.24473L21.5 7.5C20.9909 7.8261 20.0855 8.42995 19.6787 8.91791M19.6787 8.91791C16.5 12 17.7389 20.4503 22.3354 22.4132C28.0809 24.867 35.7416 21.7998 36.38 24.2535C37.0184 26.7072 38.9336 27.9341 29.9961 27.9341C21.0586 27.9341 16.5898 27.9341 14.6747 27.9341C12.7595 27.9341 7.65235 32.2281 8.92913 35.9086C10.2059 39.5892 17.022 43.8832 19.6787 38.3623C21.804 33.9457 18.505 30.3878 16.5898 29.1609C14.6746 28.343 9.95049 27.198 6.3755 29.1609C2.8005 31.1239 2.75794 32.0236 3.18354 32.2281" stroke-width="3" stroke="black"/>
</svg>
