<svg width="40" height="49" viewBox="0 0 40 49" fill="none" xmlns="http://www.w3.org/2000/svg">

<path d="M31.0594 33.4494C31.3729 31.9137 31.0594 29.2109 27.297 30.6851C23.5347 32.1594 19.1453 35.5994 17.4209 37.1352C15.5398 38.6709 12.9061 42.203 17.4209 44.0458C23.0644 46.3494 25.416 44.0458 26.3565 41.7423C27.1089 39.8994 25.4159 37.5959 24.4754 36.6744C21.9671 35.1387 16.8566 31.6066 16.4804 29.7638C16.0101 27.4602 15.5398 22.8531 18.8319 17.7852C21.4655 13.731 24.3186 12.7174 25.4159 12.7174C27.6106 12.5638 32 12.9938 32 15.9424C32 18.8909 31.3729 21.1638 31.0594 21.9316C29.8053 23.7745 26.4506 26.9073 23.0645 24.6959C19.6784 22.4845 16.3237 18.5531 15.0695 16.8638C13.3451 13.7924 10.5548 7.00453 13.1884 4.42454C15.822 1.84456 18.0481 3.34955 18.8319 4.42454C19.3022 5.1924 20.0547 7.28096 19.3022 9.49238C18.5497 11.7038 13.9722 18.7066 11.7776 21.9316C10.6802 23.1602 8.95585 25.8937 10.837 26.9994C13.1884 28.3816 17.8914 27.4602 19.7725 26.5387C21.6537 25.6173 22.5944 21.4708 24.0051 19.628C25.1338 18.1538 26.043 16.5567 26.3565 15.9424" stroke-width="3" stroke="black"/>
</svg>
