<svg width="40" height="49" viewBox="0 0 40 49" fill="none" xmlns="http://www.w3.org/2000/svg">

<path d="M8.12682 22.5L31.8561 22C32.2 21.1667 32.6814 19.3 31.8561 18.5C30.8243 17.5 29.7926 16 29.7926 15C29.7926 14.2 29.7926 13.3333 29.7926 13H14.8329M14.8329 13H4.51585C4.51585 15.6667 4.61902 21.7 5.03171 24.5C5.44439 27.3 4.51585 29.6667 4 30.5C10.1902 30.3333 23.1897 29.9 25.6658 29.5C28.1419 29.1 33.9195 28.6667 36.4987 28.5C36.6707 31.1667 36.3956 37 33.9195 39C30.8243 41.5 24.6341 41.5 21.539 40C18.4439 38.5 14.8329 36 14.3171 34.5C13.8012 33 13.2854 26.6087 13.2854 24.5C13.2854 22.813 14.3171 16.1304 14.8329 13Z" stroke-width="4" stroke="black"/>
</svg>
