<svg width="500" height="500" viewBox="0 0 500 500" fill="none" xmlns="http://www.w3.org/2000/svg">
<g>
<rect width="500" height="500" fill="white"/>
<path d="M112.305 385V377.773H122.266C133.464 377.773 141.471 374.128 146.289 366.836C149.023 362.669 150.391 353.099 150.391 338.125V252.578H112.305V238.125H150.391V167.031C150.391 150.495 148.568 140.143 144.922 135.977C139.844 130.247 132.292 127.383 122.266 127.383H112.305V120.156H220.117C261.133 120.156 291.471 124.844 311.133 134.219C330.794 143.464 347.005 158.372 359.766 178.945C372.526 199.388 378.906 223.346 378.906 250.82C378.906 288.19 366.927 319.896 342.969 345.938C319.141 371.979 281.641 385 230.469 385H112.305ZM188.086 365.469C204.622 369.115 218.49 370.938 229.688 370.938C259.766 370.938 284.766 360.326 304.688 339.102C324.609 317.878 334.57 289.102 334.57 252.773C334.57 216.185 324.609 187.344 304.688 166.25C284.766 145.156 259.245 134.609 228.125 134.609C216.406 134.609 203.06 136.497 188.086 140.273V238.125H264.844V252.578H188.086V365.469Z" fill="black"/>
</g>
</svg>
