<svg width="500" height="500" viewBox="0 0 500 500" fill="none" xmlns="http://www.w3.org/2000/svg">
<g>
<rect width="500" height="500" fill="white"/>
<path d="M197.266 377.969V385H98.6328V377.969H106.641C115.495 377.969 121.94 375.43 125.977 370.352C130.143 365.273 132.227 354.401 132.227 337.734V194.375C132.227 165.859 139.583 144.31 154.297 129.727C169.141 115.013 186.654 107.656 206.836 107.656C219.987 107.656 231.445 111.302 241.211 118.594C250.977 125.755 255.859 133.047 255.859 140.469C255.859 144.505 254.102 148.281 250.586 151.797C247.201 155.182 243.62 156.875 239.844 156.875C233.203 156.875 226.042 151.276 218.359 140.078C210.026 127.839 201.042 121.719 191.406 121.719C184.375 121.719 178.581 123.932 174.023 128.359C169.596 132.786 166.862 139.753 165.82 149.258C164.909 158.633 164.453 173.281 164.453 193.203V337.734C164.453 353.88 166.406 364.622 170.312 369.961C174.219 375.299 180.534 377.969 189.258 377.969H197.266ZM270.703 107.266V238.125C285.156 222.24 296.615 212.083 305.078 207.656C313.542 203.099 322.005 200.82 330.469 200.82C340.625 200.82 349.349 203.62 356.641 209.219C363.932 214.818 369.336 223.607 372.852 235.586C375.326 243.919 376.562 259.154 376.562 281.289V344.57C376.562 355.898 377.474 363.646 379.297 367.812C380.599 370.938 382.812 373.411 385.938 375.234C389.062 377.057 394.792 377.969 403.125 377.969V385H315.234V377.969H319.336C327.669 377.969 333.464 376.732 336.719 374.258C339.974 371.654 342.253 367.878 343.555 362.93C343.945 360.846 344.141 354.727 344.141 344.57V281.289C344.141 261.758 343.099 248.932 341.016 242.812C339.062 236.693 335.872 232.135 331.445 229.141C327.018 226.016 321.68 224.453 315.43 224.453C309.049 224.453 302.409 226.146 295.508 229.531C288.607 232.917 280.339 239.753 270.703 250.039V344.57C270.703 356.81 271.354 364.427 272.656 367.422C274.089 370.417 276.628 372.956 280.273 375.039C284.049 376.992 290.495 377.969 299.609 377.969V385H210.938V377.969C218.88 377.969 225.13 376.732 229.688 374.258C232.292 372.956 234.375 370.482 235.938 366.836C237.5 363.19 238.281 355.768 238.281 344.57V182.656C238.281 162.214 237.76 149.648 236.719 144.961C235.807 140.273 234.31 137.083 232.227 135.391C230.273 133.698 227.604 132.852 224.219 132.852C221.484 132.852 217.057 133.893 210.938 135.977L208.203 129.141L261.719 107.266H270.703Z" fill="black"/>
</g>
</svg>
