<svg width="500" height="500" viewBox="0 0 500 500" fill="none" xmlns="http://www.w3.org/2000/svg">
<g>
<rect width="500" height="500" fill="white"/>
<path d="M297.266 377.969V385H198.633V377.969H206.641C215.495 377.969 221.94 375.43 225.977 370.352C230.143 365.273 232.227 354.401 232.227 337.734V194.375C232.227 165.859 239.583 144.31 254.297 129.727C269.141 115.013 286.654 107.656 306.836 107.656C319.987 107.656 331.445 111.302 341.211 118.594C350.977 125.755 355.859 133.047 355.859 140.469C355.859 144.505 354.102 148.281 350.586 151.797C347.201 155.182 343.62 156.875 339.844 156.875C333.203 156.875 326.042 151.276 318.359 140.078C310.026 127.839 301.042 121.719 291.406 121.719C284.375 121.719 278.581 123.932 274.023 128.359C269.596 132.786 266.862 139.753 265.82 149.258C264.909 158.633 264.453 173.281 264.453 193.203V337.734C264.453 353.88 266.406 364.622 270.312 369.961C274.219 375.299 280.534 377.969 289.258 377.969H297.266Z" fill="black"/>
</g>
</svg>
