<svg width="500" height="500" viewBox="0 0 500 500" fill="none" xmlns="http://www.w3.org/2000/svg">
<g clip-path="url(#clip0_785_16)">
<rect width="500" height="500" fill="white"/>
<path d="M356.641 315.664C356.641 346.263 344.987 367.292 321.68 378.75C305.013 386.953 280.859 391.055 249.219 391.055C217.839 391.055 193.945 386.953 177.539 378.75C154.753 367.292 143.359 346.263 143.359 315.664C143.359 280.378 163.411 258.438 203.516 249.844C171.615 239.557 155.664 220.221 155.664 191.836C155.664 170.482 165.299 154.206 184.57 143.008C199.284 134.414 217.122 129.206 238.086 127.383V140.469C210.352 143.854 196.484 160.456 196.484 190.273C196.484 211.107 201.562 225.104 211.719 232.266C219.141 238.776 231.836 242.031 249.805 242.031C267.122 242.031 279.883 238.125 288.086 230.312C298.372 222.109 303.516 207.461 303.516 186.367C303.516 168.268 300.13 154.857 293.359 146.133C287.109 138.19 276.628 131.94 261.914 127.383V114.297C283.789 117.552 302.018 124.193 316.602 134.219C335.091 147.109 344.336 165.013 344.336 187.93C344.336 218.919 328.385 239.557 296.484 249.844C336.589 258.438 356.641 280.378 356.641 315.664ZM311.328 317.031C311.328 294.896 304.818 278.685 291.797 268.398C281.12 259.805 267.122 255.508 249.805 255.508C232.487 255.508 218.555 259.805 208.008 268.398C195.117 278.685 188.672 294.896 188.672 317.031C188.672 357.135 208.854 377.188 249.219 377.188C290.625 377.188 311.328 357.135 311.328 317.031Z" fill="black"/>
</g>
<defs>
<clipPath id="clip0_785_16">
<rect width="500" height="500" fill="white"/>
</clipPath>
</defs>
</svg>
