<svg width="500" height="500" viewBox="0 0 500 500" fill="none" xmlns="http://www.w3.org/2000/svg">
<g clip-path="url(#clip0_785_19)">
<rect width="500" height="500" fill="white"/>
<path d="M192.383 161.914C203.19 144.987 214.909 131.12 227.539 120.312C240.299 109.505 256.706 104.102 276.758 104.102C306.055 104.102 329.232 115.365 346.289 137.891C363.477 160.286 372.07 191.406 372.07 231.25C372.07 257.682 368.685 282.552 361.914 305.859C355.273 329.167 344.141 347.526 328.516 360.938C313.021 374.349 297.917 381.055 283.203 381.055C271.354 381.055 261.393 377.214 253.32 369.531C245.247 361.719 241.211 352.865 241.211 342.969C241.211 337.37 242.969 332.487 246.484 328.32C250.13 324.023 254.688 321.875 260.156 321.875C270.833 321.875 278.646 330.794 283.594 348.633C285.547 355.924 287.76 360.417 290.234 362.109C292.708 363.802 295.703 364.648 299.219 364.648C310.547 364.648 318.685 357.096 323.633 341.992C328.581 326.758 331.055 295.833 331.055 249.219C331.055 205.469 325.977 173.568 315.82 153.516C305.664 133.333 289.518 123.242 267.383 123.242C254.232 123.242 241.797 127.539 230.078 136.133C218.359 144.727 205.794 160.547 192.383 183.594V328.125C192.383 340.495 193.034 348.763 194.336 352.93C195.638 356.966 198.698 360.482 203.516 363.477C208.333 366.341 214.128 367.773 220.898 367.773H230.469V375H116.992V367.773H126.367C132.487 367.773 137.891 366.602 142.578 364.258C147.266 361.784 150.456 358.594 152.148 354.688C153.971 350.781 154.883 341.927 154.883 328.125V155.469C154.883 138.151 152.734 127.018 148.438 122.07C144.271 116.992 136.914 114.453 126.367 114.453H116.992V107.031H192.383V161.914Z" fill="black"/>
</g>
<defs>
<clipPath id="clip0_785_19">
<rect width="500" height="500" fill="white"/>
</clipPath>
</defs>
</svg>
