<svg width="500" height="500" viewBox="0 0 500 500" fill="none" xmlns="http://www.w3.org/2000/svg">
<g clip-path="url(#clip0_785_28)">
<rect width="500" height="500" fill="white"/>
<path d="M296.875 249.062V169.375C296.875 154.401 295.964 144.831 294.141 140.664C292.318 136.367 288.607 133.112 283.008 130.898C277.409 128.685 269.271 127.513 258.594 127.383V120.156H372.656V127.383C361.719 127.513 353.516 128.685 348.047 130.898C342.578 133.112 338.932 136.497 337.109 141.055C335.286 145.482 334.375 154.922 334.375 169.375V335.781C334.375 351.016 335.417 360.781 337.5 365.078C339.714 369.375 343.359 372.5 348.438 374.453C353.646 376.276 361.719 377.383 372.656 377.773V385H258.594V377.773C270.052 377.513 278.32 376.341 283.398 374.258C288.477 372.044 291.992 368.854 293.945 364.688C295.898 360.521 296.875 350.885 296.875 335.781V264.688C264.062 279.401 237.305 286.758 216.602 286.758C201.107 286.758 188.477 283.698 178.711 277.578C169.076 271.458 163.021 264.818 160.547 257.656C158.203 250.365 157.031 235.911 157.031 214.297V169.375C157.031 154.661 156.055 145.091 154.102 140.664C152.279 136.237 148.503 132.982 142.773 130.898C137.174 128.685 129.167 127.513 118.75 127.383V120.156H233.203V127.383C222.135 127.383 213.672 128.62 207.812 131.094C201.953 133.568 198.242 137.279 196.68 142.227C195.247 147.044 194.531 156.094 194.531 169.375V206.094C194.531 223.281 195.508 235.521 197.461 242.812C199.414 249.974 203.385 255.508 209.375 259.414C215.365 263.19 222.982 265.078 232.227 265.078C251.758 265.078 273.307 259.74 296.875 249.062Z" fill="black"/>
</g>
<defs>
<clipPath id="clip0_785_28">
<rect width="500" height="500" fill="white"/>
</clipPath>
</defs>
</svg>
