<svg width="500" height="500" viewBox="0 0 500 500" fill="none" xmlns="http://www.w3.org/2000/svg">
<g clip-path="url(#clip0_785_34)">
<rect width="500" height="500" fill="white"/>
<path d="M272.656 134.609V239.297H322.852C337.826 239.297 348.372 236.497 354.492 230.898C360.612 225.299 364.193 215.273 365.234 200.82H372.266V292.812H365.234C363.672 279.792 361.523 271.068 358.789 266.641C356.185 262.083 351.758 258.438 345.508 255.703C342.513 254.271 334.961 253.555 322.852 253.555H272.656V341.25C272.656 353.099 273.112 360.195 274.023 362.539C274.935 364.753 276.823 366.641 279.688 368.203C282.552 369.766 287.695 370.547 295.117 370.547H330.664C344.857 370.547 355.794 369.375 363.477 367.031C371.159 364.688 378.581 360.13 385.742 353.359C395.247 344.505 403.06 332.852 409.18 318.398H416.602L395.508 385H196.68V377.773H206.641C217.448 377.773 225.391 374.583 230.469 368.203C233.594 364.036 235.156 354.076 235.156 338.32V282.461H157.812L133.594 327.969C124.479 345.156 119.922 356.419 119.922 361.758C119.922 365.404 121.875 368.789 125.781 371.914C129.818 374.909 138.086 376.862 150.586 377.773V385H67.3828V377.773C73.112 377.643 77.9948 376.406 82.0312 374.062C86.1979 371.719 90.6901 367.487 95.5078 361.367C100.326 355.247 106.445 345.286 113.867 331.484L194.336 180.898C204.362 162.279 209.375 149.714 209.375 143.203C209.375 139.036 207.617 135.781 204.102 133.438C199.674 130.182 190.169 128.164 175.586 127.383V120.156H392.578L395.508 178.359H388.867C387.174 164.948 383.919 154.727 379.102 147.695C375.586 142.617 370.508 138.906 363.867 136.562C360.091 135.26 351.237 134.609 337.305 134.609H272.656ZM235.156 134.609L165.43 268.203H235.156V134.609Z" fill="black"/>
</g>
<defs>
<clipPath id="clip0_785_34">
<rect width="500" height="500" fill="white"/>
</clipPath>
</defs>
</svg>
