<svg width="500" height="500" viewBox="0 0 500 500" fill="none" xmlns="http://www.w3.org/2000/svg">
<rect width="500" height="500" fill="black"/>
<path d="M328.919 235.244C317.913 236.564 288.747 236.893 275.539 236.893L224.36 236.344H184.738C169.329 236.344 143.832 231.58 133.009 229.198C132.642 230.114 131.358 232.826 129.157 236.344C126.955 239.862 119.435 258.331 115.949 267.126L123.654 274.271C132.275 272.256 152.6 267.565 164.927 264.927C177.254 262.288 209.685 261.995 224.36 262.179H275.539C287.83 262.545 315.712 263.498 328.919 264.377C342.127 265.257 360.104 269.141 367.441 270.973L383.95 232.496L377.897 225.35L363.039 230.297C356.251 231.397 339.926 233.925 328.919 235.244Z" fill="white"/>
</svg>
