<svg width="500" height="500" viewBox="0 0 500 500" fill="none" xmlns="http://www.w3.org/2000/svg">
<rect width="500" height="500" fill="black"/>
<path fill-rule="evenodd" clip-rule="evenodd" d="M352.889 107.018C321.97 84.1161 276.035 79.4916 256.933 80.0421C248.27 80.0421 224.281 81.9139 197.627 89.4012C164.309 98.7602 126.993 130.691 99.0059 173.633C71.0188 216.574 77.6824 284.84 95.0077 329.433C112.333 374.027 166.308 412.564 216.285 418.62C266.262 424.676 330.232 412.013 378.21 356.41C426.188 300.806 422.856 231.439 416.193 204.463C409.529 177.486 391.537 135.646 352.889 107.018ZM220.949 382.285V114.175C210.954 116.01 186.299 125.076 167.641 146.657C148.982 168.238 141.208 202.26 139.653 216.574C138.099 234.191 136.855 274.38 144.318 294.199C153.647 318.973 164.309 338.242 180.968 356.41C194.295 370.944 213.175 379.715 220.949 382.285ZM280.256 382.285C297.803 379.348 336.896 361.585 352.889 314.019C368.881 266.453 359.552 215.657 352.889 196.205C348.668 185.194 337.562 160.2 326.901 148.308C314.998 135.033 300.97 126.149 295.733 122.833C295.106 122.435 294.605 122.118 294.249 121.883C291.584 120.121 283.809 118.212 280.256 117.478V249.882V382.285Z" fill="white"/>
</svg>
