<svg width="500" height="500" viewBox="0 0 500 500" fill="none" xmlns="http://www.w3.org/2000/svg">
<rect width="500" height="500" fill="black"/>
<path d="M160 414V405.765C165.115 405.765 176.99 404.777 183.567 400.825C190.144 396.872 191.789 379.415 191.789 371.18C191.606 325.432 191.35 230.094 191.789 214.723C192.337 195.509 192.337 164.217 192.885 158.179C193.433 152.14 193.981 148.297 196.721 137.867C198.914 129.522 203.846 122.313 206.039 119.751C208.414 116.64 216.671 108.222 230.702 99.4387C244.733 90.6552 261.029 88.0933 267.423 87.9103C275.827 86.6294 297.239 85.7144 315.654 92.3021C338.673 100.537 340.318 112.065 340.866 120.3C341.414 128.534 340.866 134.024 327.712 143.357C314.558 152.689 297.568 146.65 290.991 142.259C284.414 137.867 281.673 129.083 282.77 126.338C283.866 123.594 285.51 110.967 284.414 107.124C283.537 104.05 281.125 102.55 280.029 102.184C279.846 101.269 277.289 99.7681 268.519 101.086C259.75 102.403 257.558 115.908 257.558 122.496V338.791C257.193 351.234 256.9 378.317 258.654 387.1C260.846 398.08 264.135 400.276 269.068 403.021C273.014 405.216 284.596 405.765 289.895 405.765V414H160Z" fill="white"/>
</svg>
