<svg width="500" height="500" viewBox="0 0 500 500" fill="none" xmlns="http://www.w3.org/2000/svg">
<rect width="500" height="500" fill="black"/>
<path d="M296.358 80H162.611V95.141C166.376 95.5148 175.808 96.8233 183.416 99.0664C191.025 101.31 199.664 107.104 203.033 109.721V281.88C202.636 296.086 200.893 328.088 197.088 342.444C192.333 360.388 185.794 369.361 176.283 376.09C166.772 382.819 154.884 381.698 142.995 378.894C133.484 376.651 123.577 368.987 119.812 365.435C119.416 365.435 117.078 366.445 110.896 370.482C103.168 375.529 87.713 388.988 82.3632 394.596C78.0833 399.082 80.5799 402.82 82.3632 404.129C85.3353 406.559 96.0351 412.765 115.057 418.148C134.079 423.532 155.082 415.905 163.206 411.419H408.706C410.489 403.568 414.175 386.969 414.65 383.38C415.126 379.791 418.415 354.594 420 342.444L405.734 336.836C404.148 340.013 399.433 349.846 393.251 363.753C387.069 377.66 368.086 383.754 359.368 385.063C346.885 385.623 315.261 386.408 288.631 385.063C262 383.717 256.135 372.539 256.531 367.118V109.721C258.117 108.039 263.189 104.001 270.798 101.31C278.407 98.6178 291.008 96.4495 296.358 95.7017V80Z" fill="white"/>
</svg>
