<svg width="500" height="500" viewBox="0 0 500 500" fill="none" xmlns="http://www.w3.org/2000/svg">
<rect width="500" height="500" fill="black"/>
<path d="M80.506 96.9061V108.177C86.746 108.959 100.44 110.994 105.298 112.873C110.155 114.751 112.044 123.361 112.381 127.431C112.718 216.188 113.19 394.265 112.381 396.519C111.369 399.337 105.804 401.215 103.274 402.155C101.25 402.906 86.9147 406.851 80 408.729V419.53H188.274V408.729C186.081 408.103 179.369 406.287 170.06 404.033C160.75 401.779 156.399 397.459 155.387 395.58V276.298C155.218 272.541 155.286 263.713 156.905 258.453C158.524 253.193 166.349 246.869 170.06 244.365C173.601 242.173 184.833 239.481 201.429 246.243C218.024 253.006 234.99 275.359 241.399 285.691H258.601C264.504 277.551 278.536 259.486 287.44 252.348C298.571 243.425 309.702 240.138 325.893 242.956C338.845 245.21 343.77 260.175 344.613 267.376V395.58C344.107 396.206 341.982 398.022 337.53 400.276C333.077 402.53 318.81 406.538 312.232 408.26V420H420V408.26C415.615 407.32 405.024 404.785 397.738 402.155C390.452 399.525 387.282 396.676 386.607 395.58V254.227C386.776 249.843 385.089 238.26 376.994 226.989C368.899 215.718 347.986 210.709 338.542 209.613C336.518 208.674 326.5 209.238 302.619 219.006C278.738 228.773 257.589 252.505 250 263.149C246.627 259.705 238.667 251.503 233.81 246.243L233.656 246.077C227.694 239.62 225.016 236.72 202.44 221.354C184.226 208.956 163.819 208.361 155.893 209.613V87.5138L145.774 80C141.895 81.4088 131.506 85.1657 120.982 88.9227C110.458 92.6796 89.6131 95.8103 80.506 96.9061Z" fill="white"/>
</svg>
