<svg width="500" height="500" viewBox="0 0 500 500" fill="none" xmlns="http://www.w3.org/2000/svg">
<rect width="500" height="500" fill="black"/>
<path d="M164.624 99H53V112.375C55.0576 112.547 61.2304 113.404 69.4607 115.462C77.6911 117.52 84.5497 123.178 86.9503 125.75V219.891C86.9503 242.012 90.551 263.104 112.156 293.969C129.44 318.662 171.826 328.265 190.859 329.98C219.665 331.008 283.553 332.14 308.656 328.436C333.758 324.732 357.181 307.688 365.754 299.628C365.925 324.835 365.548 375.97 362.668 378.851C359.787 381.731 339.863 387.253 330.26 389.654V402H446V389.654C444.457 389.482 439.107 388.522 430.054 386.053C421 383.583 413.936 377.822 411.535 375.25V125.75C412.221 124.893 414.93 122.355 420.28 119.063C425.63 115.77 439.656 113.233 446 112.375V99H332.318V112.375C333.518 112.375 338.182 112.993 347.236 115.462C356.289 117.931 363.696 123.35 366.268 125.75C365.754 155.244 364.725 216.085 364.725 223.492C364.725 232.752 357.009 256.416 350.322 268.762C343.635 281.109 329.746 290.368 321.516 295.513C314.931 299.628 293.738 299.971 283.965 299.628H271.105V125.75C272.476 124.379 276.043 121.121 279.335 119.063C282.627 117.005 298.196 113.747 305.569 112.375V99H191.887V112.375C196.174 113.061 206.805 115.359 215.035 119.063C223.266 122.767 225.323 126.093 225.323 127.294V299.628C216.75 300.657 195.591 300.966 179.542 293.969C159.48 285.224 151.25 274.935 143.02 257.445C136.435 243.452 133.418 217.662 132.732 206.516V127.294C132.732 119.886 153.993 114.261 164.624 112.375V99Z" fill="white"/>
</svg>
