<svg width="500" height="500" viewBox="0 0 500 500" fill="none" xmlns="http://www.w3.org/2000/svg">
<rect width="500" height="500" fill="black"/>
<path d="M80.5537 88.3582V96.1472H92.736C98.8271 96.1472 106.579 98.3726 111.563 100.598C116.547 102.823 122.638 109.5 123.745 113.951C124.631 117.511 125.222 125.078 125.407 128.416C125.591 200.371 125.85 348.845 125.407 367.093C124.858 389.68 121.595 392.084 113.467 398.07L113.224 398.249C106.579 403.145 88.3061 403.256 80 402.7V411.602H248.89V402.7C244.645 402.885 234.714 403.034 228.956 402.144C221.757 401.031 221.203 400.475 212.343 395.467C205.256 391.462 203.114 380.446 202.93 375.438V183.495L218.435 154.008C226.371 140.099 247.893 110.612 270.486 103.936C298.727 95.5908 310.909 110.056 323.091 122.296C332.837 132.088 336.381 167.175 336.935 183.495V289.203C337.304 316.094 337.82 371.544 336.935 378.22C335.827 386.566 334.166 401.587 320.876 400.475C307.586 399.362 312.016 373.213 308.694 359.86C305.371 346.508 298.727 343.17 286.544 340.388C274.362 337.606 261.626 340.944 253.32 356.522C245.014 372.1 257.196 398.249 276.577 411.602C295.958 424.954 331.397 418.834 353.547 404.369C375.696 389.904 397.846 360.417 411.689 316.465C425.533 272.512 418.888 224.109 414.458 198.517C410.028 172.924 385.11 130.085 371.266 116.176C357.423 102.267 340.257 81.1255 289.313 80.0128C248.558 79.1226 214.743 124.892 202.93 147.888V88.3582H80.5537Z" fill="white"/>
</svg>
