<svg width="500" height="500" viewBox="0 0 500 500" fill="none" xmlns="http://www.w3.org/2000/svg">
<rect width="500" height="500" fill="black"/>
<path d="M155.527 179.676L167.701 177.032C168.584 170.861 170.771 157.462 172.465 153.23C174.159 148.999 179.875 140.183 182.522 136.304C185.874 131.015 196.284 119.485 211.104 115.676C229.63 110.916 251.331 110.916 274.62 123.61C293.252 133.766 294.734 162.398 293.146 175.445C290.323 185.847 279.702 209.402 259.8 220.404C239.898 231.406 206.693 224.988 192.579 220.404L182.522 251.611L187.815 259.545C190.285 258.134 199.354 254.573 215.868 251.611C236.511 247.908 257.683 253.726 269.327 259.545C280.972 265.363 298.439 278.057 304.79 297.627C309.872 313.284 305.849 334.828 303.203 343.644C299.145 353.87 285.312 375.38 262.446 379.611C233.864 384.9 212.163 379.082 192.579 367.446C176.911 358.137 165.937 335.357 162.408 325.132L150.234 323.016C148.823 328.658 146 342.057 146 350.52C146 358.983 147.411 378.377 148.117 387.016C158.527 395.831 188.768 413.568 226.454 413.991C264.14 414.414 294.381 399.358 304.79 391.776C316.259 384.019 341.101 362.156 348.723 336.768C358.25 305.032 354.016 288.636 342.9 266.421C334.008 248.649 307.79 233.98 295.792 228.867C302.144 224.106 315.694 213.316 319.082 208.239C323.316 201.891 331.785 198.189 337.078 168.04C342.371 137.891 331.785 126.784 321.728 113.032C311.671 99.2795 286.794 87.6431 248.155 86.0564C217.244 84.7869 169.289 105.274 149.176 115.676C149.705 117.616 150.446 124.456 149.176 136.304C147.905 148.152 152.881 170.156 155.527 179.676Z" fill="white"/>
</svg>
