<svg width="500" height="500" viewBox="0 0 500 500" fill="none" xmlns="http://www.w3.org/2000/svg">
<rect width="500" height="500" fill="black"/>
<path d="M81 422V408.047C83.7155 407.272 91.474 405.141 100.784 402.815C110.094 400.49 117.465 394.482 119.986 391.77V109.812C119.017 108.843 115.215 105.859 107.767 101.673C100.319 97.4871 86.8189 94.8904 81 94.1153V79.5814H210.179V94.1153C209.597 94.1153 205.291 94.9292 192.723 98.1847C180.154 101.44 173.52 107.293 171.775 109.812V229.571C180.115 230.346 199.123 232.478 208.433 234.803C220.071 237.71 230.545 245.849 238.692 253.407C245.209 259.453 248.778 270.654 249.748 275.498C250.135 272.979 251.959 266.08 256.148 258.639C261.385 249.337 271.859 243.524 284.079 237.129C293.855 232.013 318.022 229.571 328.884 228.99V109.812C328.69 109.037 326.324 106.44 318.41 102.254C310.497 98.0685 296.493 95.0842 290.48 94.1153V79H419.659V93.9731C420.176 93.9042 420.047 93.9861 419.659 94.1153V93.9731C418.624 94.111 415.004 94.8516 405.694 97.022C391.728 100.278 383.582 106.905 381.254 109.812V392.932C383.194 394.482 387.888 398.164 391.146 400.49C394.405 402.815 411.512 406.11 419.659 407.466V422H290.48V407.466C295.329 406.497 306.889 403.978 314.337 401.653C321.785 399.327 327.139 394.482 328.884 392.351V256.314C326.557 256.507 321.087 257.011 317.828 257.476C313.755 258.058 310.846 256.895 292.225 266.197C273.605 275.498 267.786 298.171 266.04 303.985C264.644 308.636 262.355 312.511 261.385 313.868C254.791 314.449 240.786 315.263 237.528 313.868C233.455 312.124 229.381 297.008 228.218 291.195C227.054 285.381 218.326 274.336 206.688 266.197C197.378 259.685 179.533 257.282 171.775 256.895V392.932C174.296 395.258 181.55 400.49 190.395 402.815C199.24 405.141 207.27 407.272 210.179 408.047V422H81Z" fill="white"/>
</svg>
