<svg width="500" height="500" viewBox="0 0 500 500" fill="none" xmlns="http://www.w3.org/2000/svg">
<rect width="500" height="500" fill="black"/>
<path fill-rule="evenodd" clip-rule="evenodd" d="M265.083 100.282V84C284.667 85.8715 328.534 92.7585 347.335 105.335C370.835 121.055 388.74 140.144 387.621 173.831C386.502 207.517 366.359 224.922 351.811 233.343C340.173 240.081 317.493 246.631 307.608 249.064C328.684 251.871 375.2 265.57 392.657 297.909C402.953 319.019 398.439 346.006 394.895 356.86C391.538 368.651 375.759 394.814 339.501 405.144C303.243 415.475 257.249 416.56 238.785 415.812C217.149 415.437 168.731 411.994 148.14 401.214C122.401 387.74 103.937 369.212 101.698 342.263C99.4602 315.314 102.258 301.278 115.127 286.68C127.997 272.083 139.747 265.907 150.378 260.854C158.883 256.812 181.526 251.309 191.784 249.064C169.029 244.759 121.842 227.392 115.127 192.358C106.789 148.854 126.614 135.824 142.783 125.196C142.89 125.126 142.997 125.055 143.104 124.985C159.331 114.318 188.426 107.019 197.379 105.896C204.541 104.998 224.983 101.779 234.308 100.282V116.002C226.848 118.809 210.472 127.006 204.653 137.337C197.379 150.25 190.665 169.9 199.058 198.534C207.451 227.167 234.308 247.379 268.44 236.151C301.954 225.125 303.64 185.411 304.219 171.752C304.23 171.5 304.24 171.257 304.25 171.023C304.81 158.11 301.453 127.231 287.464 113.756C276.274 102.977 267.881 100.282 265.083 100.282ZM252.214 255.801C263.404 256.924 279.071 258.833 296.977 279.943C314.882 301.053 312.457 337.023 309.286 352.369C305.743 364.908 293.955 391.108 272.917 395.6C246.618 401.214 216.963 396.723 202.974 378.195C193.462 365.596 183.95 347.316 189.546 309.138C194.022 278.595 224.237 252.994 252.214 255.801Z" fill="white"/>
</svg>
