<svg width="500" height="500" viewBox="0 0 500 500" fill="none" xmlns="http://www.w3.org/2000/svg">
<rect width="500" height="500" fill="black"/>
<path d="M29 172.031L41.6571 177.528C45.6928 170.016 55.525 152.353 62.5689 141.799C71.3739 128.607 92.2857 114.865 115.949 112.666C139.612 110.467 167.678 125.309 175.383 128.607C183.087 131.905 197.945 148.945 208.952 169.283C217.757 185.553 222.893 220.769 224.36 236.344H184.738C169.329 236.344 143.831 231.58 133.009 229.198C132.642 230.114 131.358 232.826 129.157 236.344C126.955 239.862 119.434 258.331 115.949 267.126L123.653 274.271C132.275 272.256 152.6 267.565 164.927 264.927C177.254 262.288 209.685 261.995 224.36 262.178C223.26 277.02 220.618 308.681 218.857 316.597C216.656 326.491 207.851 355.624 184.738 373.214C161.625 390.803 136.861 391.903 101.641 384.757C73.4651 379.04 56.5155 348.295 51.5627 333.637L38.3553 330.888C37.6215 332.171 35.9339 336.605 35.0534 344.081C34.1729 351.556 32.1184 383.108 31.2012 397.949C48.4443 406.927 95.8077 423.564 147.317 418.287C198.826 413.01 235.55 371.748 247.473 351.776C252.426 358.555 266.734 376.292 284.344 393.002C306.357 413.89 335.523 418.287 376.796 419.936C409.815 421.255 448.153 401.797 463.195 391.903C462.828 388.788 462.865 380.469 465.947 372.114C469.028 363.759 471.266 338.217 472 326.491L459.893 322.093C458.609 324.842 455.711 330.888 454.39 333.087C453.069 335.286 445.035 347.928 441.183 353.975C434.395 363.686 414.548 383.547 389.453 385.306C358.086 387.505 343.778 381.459 328.919 372.114C314.061 362.77 302.504 349.577 290.948 328.14C281.703 310.99 276.823 277.02 275.539 262.178C287.829 262.545 315.712 263.498 328.919 264.377C342.127 265.257 360.104 269.141 367.441 270.973L383.95 232.496L377.897 225.35L363.039 230.297C356.251 231.397 339.925 233.925 328.919 235.244C317.913 236.563 288.747 236.893 275.539 236.893C275.723 232.862 276.31 222.602 277.19 213.807C278.291 202.813 282.143 178.078 288.747 162.687C294.03 150.374 302.688 139.234 306.357 135.203C314.795 124.209 342.127 103.981 383.95 111.017C425.774 118.053 444.668 150.96 448.887 166.535L462.094 168.733C462.461 167.084 463.635 161.917 465.396 154.442C467.157 146.966 468.331 116.514 468.698 102.222C462.278 98.9241 445.255 91.2286 428.525 86.8312C407.614 81.3344 378.997 76.937 335.523 84.0828C300.743 89.7994 266 129.34 252.976 148.395C251.325 146.38 247.693 141.469 246.373 137.951C244.722 133.554 225.461 114.315 208.952 102.222C192.442 90.1292 176.483 83.5331 130.257 80.235C93.2763 77.5966 52.4799 97.8247 36.7043 108.269L29 172.031Z" fill="white"/>
</svg>
