<svg width="500" height="500" viewBox="0 0 500 500" fill="none" xmlns="http://www.w3.org/2000/svg">
<rect width="500" height="500" fill="black"/>
<path d="M290.512 120.778C279.299 123.447 272.758 128.882 270.889 131.265V366.23H228.837V131.265C228.682 130.629 226.782 128.5 220.427 125.068C214.073 121.636 202.828 119.189 198 118.394V106H301.726V118.278C302.141 118.221 302.038 118.288 301.726 118.394V118.278C300.895 118.391 297.988 118.998 290.512 120.778Z" fill="white"/>
<path d="M208.988 376.717C220.201 374.048 226.742 368.613 228.611 366.23H270.663C270.818 366.865 272.718 368.995 279.073 372.427C285.427 375.859 296.672 378.306 301.5 379.101V391.495H197.774L197.774 379.217C197.359 379.274 197.462 379.206 197.774 379.101V379.217C198.605 379.104 201.512 378.497 208.988 376.717Z" fill="white"/>
</svg>
